<?xml version="1.0" encoding="utf-8"?>
<svg version="1.1" xmlns="http://www.w3.org/2000/svg" xmlns:xlink="http://www.w3.org/1999/xlink" x="0px" y="0px"
	 viewBox="0 0 614.77 614.735" style="enable-background:new 0 0 614.77 614.735;" xml:space="preserve">
<style>
    * { fill: #000; }
</style>
<path d="M614.77,307.84c-0.998,172.978-136.232,302.068-296.895,306.753C135.71,619.906-1.734,475.569,0.017,304.144
	C1.715,137.818,135.821-5.835,319.408,0.183C477.734,5.372,614.019,132.726,614.77,307.84z M306.277,602.397
	c161.734,0.638,291.306-127.999,296.096-285.151c5.154-169.069-129.2-303.975-292.896-304.957
	C146.386,11.312,15.247,141.841,12.46,302.417C9.611,466.548,142.116,601.956,306.277,602.397z"/>
<path d="M308.054,534.049C182.525,536.03,84.02,432.379,80.305,314.933C76.223,185.886,181.814,77.283,313.053,80.319
	c120.123,2.779,219.917,101.304,221.62,224.129C536.429,431.13,431.656,535.872,308.054,534.049z M307.898,528.428
	c123.556,0.264,222.571-101.603,220.8-224.182C526.97,184.631,429.503,84.375,303.785,86.158
	C183.342,87.865,85.223,186.885,86.291,309.271C87.352,430.954,186.924,529.446,307.898,528.428z"/>
<path d="M448.193,548.19c2.863-7.055-3.457-18.563-8.964-18.125c0,1.498,0,3.019,0,5.039
	c-2.373-0.776-4.348-1.831-6.374-1.944c-1.402-0.078-3.011,0.965-4.245,1.885c-0.435,0.325-0.353,2.384,0.045,2.592
	c1.209,0.63,2.692,1.001,4.062,0.985c1.459-0.017,2.897-0.738,4.371-0.894c3.892-0.412,7.306,0.324,9.08,4.382
	c1.814,4.149-0.353,7.233-3.179,9.618c-2.088,1.762-4.843,2.828-7.437,3.866c-2.182,0.873-4.559,1.258-7.563,2.047
	c-1.006-2.135-2.163-4.592-3.97-8.428c2.437,0.836,3.585,1.405,4.795,1.611c2.963,0.506,5.96,1.117,8.931,1.057
	c0.727-0.015,1.404-2.45,2.103-3.772c-1.318-0.651-2.851-2.099-3.916-1.812c-3.969,1.07-7.701,1.788-11.554-0.437
	c-0.761-0.439-2.143,0.309-3.24,0.318c-2.127,0.017-4.257-0.066-6.381-0.18c-0.988-0.053-1.967-0.277-2.951-0.424
	c-0.102,1.033-0.552,2.188-0.242,3.077c1.092,3.133,2.043,6.445,3.855,9.147c1.033,1.541,3.632,2.033,6.137,3.308
	c-5.408,2.87-10.252,6.293-16.691,5.873c-1.046-0.068-2.189,0.739-3.225,1.265c-2.6,1.32-5.023,3.209-7.768,3.981
	c-8.429,2.368-14.704-1.366-16.135-9.173c-1.386-7.559,4.433-14.724,12.503-15.397c6.389-0.533,9.228,1.4,11.625,8.495
	c-3.182,1.142-6.464,2.121-9.563,3.51c-1.719,0.771-3.132,2.225-4.683,3.372c2.319,1.521,4.496,3.846,7.004,4.286
	c1.721,0.302,4.272-1.664,5.789-3.249c2.211-2.31,3.801-4.551,5.022,0.727c3.243-3.913-1.13-14.877-7.989-18.624
	c3.495-1.76,6.184-3.207,8.954-4.481c2.297-1.057,4.695-1.894,7.032-2.869c0.45-0.188,0.927-0.897,1.212-0.805
	c7.028,2.251,9.611-4.84,14.552-6.981c5.203-2.255,10.188-5.124,14.973-8.187c2.75-1.76,4.213-1.14,5.625,1.286
	c1.671,2.872,3.31,5.763,4.993,8.628c1.728,2.942,2.822,6.745,8.2,5.208C459.346,543.594,454.24,545.445,448.193,548.19z
	 M393.166,555.603c-2.252-2.058-3.591-3.282-4.93-4.505c-0.866,1.16-2.404,2.321-2.404,3.482c0,1.116,1.423,2.87,2.533,3.163
	C389.392,558.013,390.832,556.722,393.166,555.603z"/>
<path d="M210.006,544.342c3.62,1.477,7.197,3.074,10.878,4.379c1.752,0.621,3.694,0.895,5.562,0.962
	c5.748,0.207,8.753,3.878,7.58,9.574c-0.434,2.107-1.274,4.152-1.517,6.273c-0.356,3.112-0.34,6.267-0.535,10.533
	c-3.837-1.015-8.696-2.301-13.555-3.586c4.179-3.312,8.288-13.259,6.969-17.324c-0.747-2.303-5.052-3.068-6.057-0.755
	c-2.143,4.931-5.867,9.759-2.646,16.58c-2.488-0.442-4.565-0.5-6.405-1.189c-9.296-3.477-18.627-6.9-27.708-10.883
	c-1.87-0.82-3.075-3.812-3.955-6.051c-0.846-2.153-0.875-4.628-1.263-6.961c-0.746,0.017-1.492,0.034-2.237,0.05
	c-0.123,2.665-0.246,5.33-0.413,8.962c-4.562-2.343-9.305-4.779-14.049-7.216c-0.035-0.419-0.071-0.838-0.106-1.257
	c8.553-0.414,8.948-8.009,11.602-13.065c2.682-5.111,8.999-9.678,5.427-17.926c3.305,1.431,6.61,2.861,10.686,4.625
	c-1.871,3.894-3.502,7.258-5.104,10.635c-1.606,3.384-3.183,6.782-5.211,11.11c3.677-1.149,6.384-1.995,9.431-2.947
	c-0.578-1.611-1.05-2.924-1.967-5.476c3.69,1.606,6.46,2.776,9.2,4.013c2.84,1.282,5.534,3.1,8.502,3.834
	c4.36,1.078,4.198,3.34,2.785,6.615c-1.578,3.657-3.222,7.327-4.282,11.145c-0.396,1.427,0.251,4.017,1.338,4.793
	c1.945,1.388,3.58,0.245,4.305-2.23c0.742-2.533,2.205-4.881,2.75-7.438c0.55-2.579,0.36-5.316,0.494-7.983
	C210.34,545.539,210.173,544.941,210.006,544.342z M185.704,540.827c0.585,4.364,0.663,7.196,1.403,9.842
	c0.748,2.675,2.151,5.167,3.268,7.739c1.56-2.314,3.552-4.456,4.569-6.988c1.185-2.952,4.814-6.531,1.096-9.269
	C193.835,540.527,189.893,541.26,185.704,540.827z"/>
<path d="M573.639,258.824c0,1.98-0.044,4.91,0.027,7.836c0.021,0.865,0.219,1.794,0.591,2.572
	c3.601,7.526,1.334,11.411-7.088,12.553c-4.451,0.603-8.838,1.684-14.121,2.718c-0.301-2.64-0.722-6.338-1.224-10.748
	c6.666,3.948,12.298,1.02,17.954-0.299c0.613-0.143,1.481-2.316,1.169-2.713c-0.912-1.16-2.433-2.75-3.588-2.654
	c-5.075,0.425-10.105,1.385-15.863,2.259c-1.295-5.91-2.864-13.07-4.395-20.053c-9.742-0.797-13.56-4.649-14.557-14.117
	c-0.607-5.762,3.124-8.624,8.529-6.721c0.963,0.339,2.25-0.353,3.395-0.402c5.118-0.216,9.049-3.28,13.5-5.184
	c4.073-1.742,7.45,1.079,8.632,5.293c1.837,6.546,3.301,13.196,4.904,19.807c0.705,2.91-0.676,4.388-3.438,4.903
	c-3.908,0.729-7.896,1.206-11.679,2.353c-1.661,0.504-2.901,2.396-4.333,3.657c1.626,0.685,3.337,2.1,4.863,1.923
	C562.001,261.22,567.019,260.059,573.639,258.824z M566.424,241.759c-4.097-0.23-7.949,0.574-10.522-0.883
	c-2.482-1.405-3.644-5.143-5.385-7.856c-0.315,0.271-0.63,0.543-0.945,0.814c0.351,5.256,0.701,10.512,1.096,16.427
	c3.772-0.813,7.428-1.729,11.132-2.368C567.251,246.952,567.759,246.214,566.424,241.759z M545.183,241.345
	c-2.035-2.729-3.346-4.488-4.657-6.246c-1.527,1.399-3.054,2.798-4.581,4.197c1.522,1.628,2.861,3.54,4.677,4.711
	C541.167,244.358,543.043,242.643,545.183,241.345z M554.287,236.771c3.86-1.246,6.666-2.056,9.335-3.188
	c0.224-0.095-0.109-3.156-0.799-3.464C560.128,228.913,555.772,231.727,554.287,236.771z"/>
<path d="M198.167,85.334c-3.148,1.781-5.816,3.291-8.097,4.581c-2.397-5.172-4.337-9.849-6.762-14.26
	c-0.647-1.177-2.778-1.539-4.227-2.275c-0.41,1.663-1.638,3.697-1.083,4.922c2.013,4.443,4.624,8.614,7.295,13.399
	c-5.466,3.549-11.673,7.579-17.071,11.084c-3.126-4.719-5.75-9.056-8.817-13.053c-0.794-1.035-2.973-1.006-4.517-1.465
	c-0.279,1.672-1.372,3.863-0.695,4.924c2.696,4.226,5.944,8.1,9.483,12.756c-1.815,1.369-4.317,3.255-6.92,5.219
	c-3.669-7.185-6.601-14.051-13.981-18.012c0.701-0.893,1.322-2.019,2.239-2.792c3.303-2.784,7.588-3.91,10.489-7.777
	c1.751-2.335,6.17-1.942,8.644,1.435c2.453,3.348,4.866,6.732,7.497,9.936c0.673,0.82,2.104,1.017,3.187,1.5
	c0.572-1.289,1.998-3.101,1.58-3.785c-3.098-5.068-3.813-11.901-11.985-15.219c3.978-1.862,6.889-3.223,9.798-4.587
	c0.74-0.347,1.8-0.508,2.16-1.094c2.511-4.085,6.023-4.889,10.285-3.276c0.974-1.532,1.685-3.058,2.758-4.261
	c3.279-3.676,7.747-3.423,10.516,0.64c1.676,2.459,2.963,5.18,4.558,7.698c1.582,2.497,3.331,4.888,5.319,7.779
	c-2.43,1.229-5.552,2.808-7.751,3.92c-3.079-6.139-5.941-11.844-8.899-17.74C187.356,69.935,189.496,77.38,198.167,85.334z"/>
<path d="M290.263,24.122c2.257-0.186,5.124-0.423,8.65-0.714c0.753,12.199,1.478,23.956,2.287,37.06
	c-5.279,0-11.72-0.041-18.159,0.037c-1.202,0.014-2.386,0.583-3.598,0.755c-2.341,0.333-4.701,0.531-7.043,0.853
	c-1.363,0.187-2.88,0.192-4.033,0.82c-6.268,3.416-10.548,1.533-12.004-5.465c-0.576-2.767-0.914-5.599-1.699-8.302
	c-0.561-1.931-1.687-3.699-2.912-6.28c0.178-1.248,0.287-3.771,0.981-6.121c0.333-1.129,1.648-2.488,2.742-2.729
	c1.116-0.246,2.815,0.424,3.711,1.271c1.862,1.76,3.362,3.903,5.328,6.271c-6.02,4.222-1.384,10.464-0.616,16.268
	c0.129,0.977,2.458,1.663,4.845,3.154c-0.858-7.891,2.977-10.954,8.166-13.462c1.427-0.69,2.203-3.471,2.488-5.408
	c0.114-0.777-1.899-1.867-3.833-3.62c0,3,0.383,4.441-0.101,5.475c-0.554,1.183-1.738,2.491-2.912,2.83
	c-0.951,0.275-2.746-0.497-3.334-1.368c-0.581-0.859-0.495-2.586-0.041-3.65c1.583-3.711,7.185-5.949,12.697-3.995
	c2.204,0.782,3.91,4.339,4.836,6.985c1.019,2.912,0.828,6.236,1.26,9.368c0.393,2.845,1.853,4.174,5.544,2.806
	C292.551,46.474,294.023,35.596,290.263,24.122z M281.495,49.472c-5.468,1.066-5.532,3.841-4.9,6.606
	c0.168,0.733,1.896,1.109,2.907,1.649C280.086,55.306,280.671,52.886,281.495,49.472z"/>
<path d="M70.159,177.146c2.107-3.042,3.944-5.57,5.634-8.192c0.757-1.174,1.451-2.481,1.779-3.823
	c1.343-5.513,5.511-7.45,10.534-4.689c2.599,1.429,5.017,3.215,7.692,4.466c2.132,0.998,4.529,1.43,7.676,2.374
	c-1.733,3.059-3.498,6.174-4.8,8.473c-5.214-3.323-9.625-6.306-14.241-8.929c-0.889-0.505-3.492,0.09-3.709,0.723
	c-0.426,1.245-0.256,3.632,0.588,4.216c4.25,2.939,8.797,5.448,13.922,8.517c-4.941,9.942-10.447,21.021-16.098,32.393
	c-3.618-6.659-23.408-15.374-30.815-13.114c1.912-4.354,3.506-8.053,5.162-11.724c0.681-1.509,1.611-2.912,2.228-4.444
	c2.888-7.171,3.9-7.449,10.87-2.373c-0.963,0.338-1.641,0.766-2.329,0.786c-4.048,0.116-6.828,2.129-7.443,6.023
	c-0.725,4.597,4.086,3.97,6.399,5.586c0.916,0.64,3.625,0.204,4.264-0.664c0.668-0.907-0.042-2.956-0.405-4.444
	c-0.208-0.854-0.923-1.584-1.41-2.37c0.252-0.382,0.505-0.763,0.757-1.145c3.907,1.832,7.814,3.665,11.214,5.259
	c-2.927,1.913-5.411,3.536-7.895,5.159c2.537,1.602,4.951,3.48,7.663,4.689c1.347,0.6,4.37,0.492,4.685-0.193
	c1.142-2.481,2.031-5.373,1.888-8.049c-0.099-1.847-2.056-3.595-4.021-6.721c3.689,1.307,5.985,2.12,8.401,2.976
	C87.979,183.311,79.602,178.192,70.159,177.146z"/>
<path d="M540.145,199.185c-1.894,1.217-3.789,2.434-5.676,3.647c2.572,3.201,13.87-0.998,19.354-7.804
	c1.082,3.46,1.895,6.353,2.907,9.174c0.52,1.449,1.222,2.901,2.143,4.126c3.732,4.962,2.695,8.975-3.098,11.387
	c-2.895,1.205-5.897,2.187-8.699,3.575c-1.92,0.951-3.579,2.428-6.011,4.13c-1.126-2.662-2.476-5.852-3.664-8.662
	c5.551-1.905,10.487-3.408,15.237-5.364c1.158-0.477,2.464-2.549,2.302-3.689c-0.141-0.992-2.536-2.653-3.454-2.383
	c-5.09,1.498-10.882,1.782-14.686,7.711c-5.667-11.678-11.093-22.857-16.78-34.577c7.162,1.672,26.446-8.73,28.858-15.376
	c0.99,1.136,1.949,1.923,2.507,2.932c2.482,4.487,4.988,8.97,7.22,13.583c2.504,5.177,1.194,7.083-5.619,7.857
	c2.145-4.568,4.548-9.165-1.312-13.076c-1.805,0.835-4.154,1.606-6.12,2.943c-1.273,0.865-1.984,2.555-2.947,3.875
	c1.409,0.909,2.756,1.947,4.254,2.674c0.805,0.391,1.868,0.247,3.256,1.487c-3.59,1.953-7.18,3.906-10.835,5.893
	c-0.39-0.864-0.651-1.158-0.617-1.411c0.353-2.6,0.754-5.194,1.142-7.79c-2.712,0.772-5.734,1.051-8.031,2.487
	c-1.586,0.992-3.298,3.829-2.956,5.409c0.625,2.885,2.202,5.988,6.348,5.682c1.565-0.115,3.163,0.228,4.746,0.362
	C539.992,198.387,540.068,198.786,540.145,199.185z"/>
<path d="M550.485,346.687c4.597,4.582,15.242,6.721,19.299,4.561c-5.91-4.419-5.907-5.668,0.023-9.605
	c-3.707-3.313-13.694-4.113-18.405-0.436c0.476-4.679,0.844-8.303,1.091-10.728c8.052,0.831,15.364,1.585,23.438,2.418
	c-1.085,8.026-2.346,17.362-3.706,27.424c-3.49-0.474-6.71-0.881-9.92-1.356c-2.617-0.387-5.217-1.122-7.835-1.173
	c-1.254-0.024-2.532,1.179-3.799,1.826c0.829,1.049,1.475,2.742,2.518,3.038c5.313,1.509,10.729,2.656,16.96,4.131
	c-0.057-0.417,0.384,0.711,0.182,1.709c-0.93,4.597-3.363,8.662-3.499,13.692c-0.104,3.83-5.501,4.755-11.477,3.043
	c-4.096-1.173-8.328-1.872-13.122-2.918c0.476-2.186,1.187-5.456,1.75-8.046c5.553,1.489,10.336,2.976,15.221,3.95
	c1.344,0.268,2.993-0.992,4.502-1.551c-1.026-1.472-1.77-3.816-3.131-4.258c-4.616-1.5-9.45-2.327-14.719-3.53
	C547.265,362.126,548.79,354.813,550.485,346.687z"/>
<path d="M500.191,117.882c1.922,1.297,3.337,1.791,4.01,2.787c2.515,3.718,5.057,7.141,8.955,9.802
	c2.744,1.873,1.846,5.492-0.46,7.955c-1.914,2.044-4.212,3.725-6.154,5.745c-2.083,2.168-3.949,4.545-6.6,7.637
	c-1.924-2.04-4.364-4.627-6.137-6.507c4.49-3.786,8.68-7.097,12.544-10.753c0.856-0.809,0.559-2.837,0.793-4.303
	c-1.551-0.146-3.698-1.016-4.551-0.314c-3.999,3.291-7.643,7.014-12.007,11.145c-0.823-0.761-2.935-1.974-3.946-3.797
	c-2.389-4.308-8.869-5.132-9.278-11.11c-0.026-0.379-2.085-0.562-3.164-0.935c-3.914-1.354-5.748-4.567-4.443-8.137
	c1.396-3.818,4.302-5.325,8.239-4.428c1.918,0.437,3.696,1.665,5.611,1.882c1.682,0.191,3.634-0.207,5.134-0.985
	c0.726-0.377,0.688-2.224,0.996-3.405c-1.203,0.032-2.41,0.011-3.607,0.11c-1.691,0.139-3.514,0.819-5.002,0.361
	c-0.715-0.22-1.401-3.489-1.05-3.71c1.676-1.056,4.25-2.634,5.515-2.013c3.253,1.598,6.771,3.737,8.706,6.643
	c2.073,3.113,0.289,6.572-2.629,9.201c-2.192,1.975-4.268,4.205-5.848,6.673c-0.696,1.087-0.034,3.044,0.011,4.605
	c1.411-0.201,3.504,0.119,4.118-0.688C493.252,127.003,500.231,125.725,500.191,117.882z M484.186,119.336
	c-0.472-0.906-0.943-1.812-1.415-2.717c-1.971,1.056-4.026,1.992-5.833,3.278c-0.32,0.228,0.394,1.909,0.631,2.919
	C479.775,121.655,481.981,120.495,484.186,119.336z"/>
<path d="M322.531,584.749c-4.703,0-9.407,0-14.533,0c4.705-5.892,4.509-16.255-0.522-22.564
	c2.391-0.328,4.395-0.637,6.408-0.872c3.964-0.462,7.942-0.818,11.898-1.337c4.784-0.627,8.212,1.882,9.054,6.823
	c0.614,3.604,0.95,7.274,1.868,10.796c0.318,1.22,1.883,2.586,3.131,2.908c0.69,0.178,2.815-1.758,2.733-2.586
	c-0.609-6.123,1.189-13.154-6.828-17.647c3.932-0.945,6.882-1.99,9.89-2.196c1.063-0.073,2.935,1.719,3.275,2.974
	c0.906,3.349,0.917,6.936,1.785,10.299c0.778,3.014,2.223,5.855,3.824,9.915c-8.73,1.097-18.418,2.315-27.661,3.477
	c0-6.308,0.192-11.461-0.151-16.578c-0.074-1.111-2.272-3.092-3.126-2.915c-1.473,0.307-3.77,1.985-3.776,3.099
	C319.77,573.492,318.451,579.047,322.531,584.749z"/>
<path d="M451.377,520.602c-0.249-1.912-0.727-4.217-0.778-6.531c-0.028-1.266,0.299-3.235,1.117-3.674
	c1.491-0.801,3.592-1.212,5.202-0.818c1.388,0.339,2.447,2.025,3.903,3.343c4.52-3.313,8.972-6.576,14.248-10.442
	c-0.132,8.083,5.978,6.963,9.892,9.098c0.596-7.045-1.308-10.129-7.665-10.529c3.096-2.793,5.448-4.914,8.12-7.325
	c2.05,11.358,4.201,21.763,5.683,32.263c0.565,4.004,0.112,8.362-4.866,10.348c-2.738,1.093-5.142,1.172-6.268-1.718
	c-1.131-2.904,0.665-4.692,3.503-5.389c1.435-0.352,2.898-0.588,4.626-0.931c1.423-3.51,0.985-5.676-3.531-7.07
	c-4.682-1.446-8.914-4.299-13.44-6.32c-1.589-0.709-3.515-1.221-5.2-1.034c-3.149,0.348-4.537,2.021-2.253,5.048
	c0.592,0.785,1.293,1.491,1.85,2.299c4.803,6.973,4.796,6.977,12.724,5.611c-0.768,5.133-4.653,7.215-8.397,8.765
	c-3.292,1.362-6.066-0.407-7.808-3.618c-0.945-1.743-1.938-3.56-3.309-4.95C456.464,524.731,453.875,522.753,451.377,520.602z"/>
<path d="M117.91,148.93c-4.876-4.29-9.133-8.167-13.575-11.817c-0.753-0.619-2.303-0.268-3.485-0.365
	c-0.05,1.217-0.579,2.706-0.069,3.606c2.525,4.461,5.39,8.729,7.995,13.148c0.982,1.666,1.585,3.555,2.36,5.342
	c-0.395,0.493-0.791,0.987-1.186,1.48c-8.168-2.095-16.336-4.19-25.376-6.508c1.87-2.733,3.797-5.549,5.163-7.545
	c4.991,2.117,9.101,3.86,13.211,5.603c0.465-0.556,0.93-1.111,1.395-1.667c-2.821-3.296-5.642-6.592-9.132-10.67
	c2.279-2.884,5.494-6.952,9.119-11.538c4.429,3.546,8.598,6.967,12.872,10.251c1.125,0.865,2.537,1.736,3.883,1.853
	c2.647,0.231,3.572-1.932,2.054-3.489c-4.229-4.337-8.939-8.204-13.459-12.256c-0.5,0.251-1.001,0.501-1.501,0.752
	c1.135-1.714,2.147-3.529,3.437-5.118c1.668-2.055,3.322-4.262,5.434-5.769c1.48-1.056,4.092-1.91,5.513-1.288
	c1.523,0.667,2.244,3.167,3.316,4.868c-1.568,0.75-3.111,1.563-4.719,2.215c-0.547,0.222-1.259,0.035-1.918,0.035
	c0.56,5.11,7.625,11.426,13.786,11.848C127.524,138.098,122.341,143.937,117.91,148.93z"/>
<path d="M473.653,93.53c-1.169,1.61-2.353,3.241-4.486,6.178c-0.401-2.947-0.339-4.391-0.831-5.61
	c-0.571-1.413-1.512-2.74-2.568-3.841c-0.229-0.239-2.291,0.545-2.363,1.027c-0.222,1.495-0.082,3.122,0.297,4.6
	c0.225,0.88,1.611,1.53,1.7,2.365c0.296,2.79,1.32,6.352,0.036,8.234c-1.442,2.113-5.046,3.642-7.788,3.771
	c-4.353,0.204-10.614-6.403-10.986-9.532c-3.922-1.411-7.904-1.975-10.777-4.065c-5.373-3.909-5.112-11.356-0.124-17.752
	c3.636-4.663,9.919-5.58,15.14-2.211c3.72,2.401,5.447,8.049,3.148,11.746c-0.634,1.019-2.873,1.571-4.28,1.425
	c-1.312-0.136-2.409-1.711-3.76-2.248c-1.819-0.722-3.792-1.057-5.699-1.558c-0.41,2.196-1.72,4.786-0.98,6.478
	c0.761,1.739,3.38,3.138,5.453,3.698c2.058,0.556,4.449-0.118,6.82-0.26c0.209,2.774-0.135,5.257,0.716,7.222
	c0.646,1.491,2.813,2.323,4.303,3.449c0.385-1.838,1.036-3.674,1.049-5.514c0.007-0.99-1.047-2.01-1.679-2.979
	c-2.354-3.611-1.861-6.85,1.098-9.903c3.217-3.32,6.61-2.569,9.87-0.342C469.239,89.465,471.219,91.459,473.653,93.53z
	 M442.767,81.876c0.307,0.711,0.615,1.422,0.922,2.134c1.666-0.361,4.124-0.211,4.777-1.224c0.669-1.039-0.427-3.216-0.751-4.895
	C446.066,79.219,444.416,80.547,442.767,81.876z"/>
<path d="M133.065,486.598c6.936,5.782,13.001,10.531,18.69,15.695c3.545,3.218,3.724,7.36,0.755,11.18
	c-2.768,3.56-6.628,5.151-10.979,3.626c-3.373-1.182-6.466-3.168-9.937-4.925c-2.826,3.308-7.555,5.996-3.974,12.098
	c-0.46,0.251-0.919,0.503-1.379,0.754c-4.735-3.828-9.471-7.656-14.206-11.484C120.497,512.714,133.657,497.032,133.065,486.598z
	 M134.112,508.736c4.94,3.07,8.213,2.389,10.658-1.493c2.522-4.004,1.863-6.495-2.68-9.283
	C139.509,501.448,136.913,504.953,134.112,508.736z"/>
<path d="M262.97,559.104c-1.324,2.671-2.479,4.538-3.204,6.56c-1.633,4.553-5.254,4.993-9.257,4.812
	c-2.393-0.109-4.784-0.257-7.177-0.388c-0.172,0.478-0.344,0.956-0.516,1.433c1.155,0.695,2.232,1.636,3.482,2.035
	c2.664,0.851,5.455,1.301,8.125,2.135c3.482,1.088,6.448,3.714,5.56,7.141c-0.679,2.621-3.682,5.914-6.229,6.534
	c-7.322,1.784-14.47-0.391-20.976-3.938c-1.281-0.698-2.569-3.825-2.022-4.891c0.938-1.827,3.321-2.912,4.756-4.04
	c0.799-2.872,1.602-5.758,2.406-8.644c0.396,0.061,0.791,0.122,1.187,0.183c-0.38-0.889-0.74-1.786-1.143-2.664
	c-2.235-4.874-0.35-8.761,5.031-9.9C250.438,553.895,256.833,557.225,262.97,559.104z M241.931,579.179
	c-0.906,0.71-2.617,1.443-3.166,2.688c-0.379,0.859,0.51,3.041,1.43,3.55c1.961,1.083,4.324,2,6.498,1.949
	c1.571-0.037,3.103-1.745,4.652-2.707c-0.94-1.268-1.628-2.98-2.884-3.695C246.829,580.032,244.746,579.893,241.931,579.179z
	 M253.216,562.146c-1.946-1.886-3.177-3.079-4.408-4.272c-1.255,1.869-3.1,3.615-3.53,5.658c-0.235,1.118,1.921,2.74,3,4.134
	C249.748,566.022,251.219,564.378,253.216,562.146z"/>
<path d="M25.785,335.85c12.621-1.797,24.222-3.45,36.508-5.199c0.924,6.15,2.054,13.672,3.111,20.705
	c-12.446,0.124-23.981,0.953-35.555,6.415c-0.358-1.662-1.328-4.14-1.226-6.573c0.048-1.144,2.023-2.926,3.36-3.179
	c8.454-1.606,16.993-2.765,25.455-4.334c1.41-0.261,2.583-1.802,3.866-2.751c-1.626-0.724-3.325-2.196-4.866-2.046
	c-7.582,0.736-15.145,1.768-22.662,3.016c-1.791,0.297-3.377,1.823-5.812,3.216C27.373,342.612,26.67,339.621,25.785,335.85z"/>
<path d="M274.771,549.621c4.406,0.309,9.563,0.671,14.719,1.033c0.147,0.524,0.294,1.049,0.441,1.574
	c-4.846,1.847-4.869,5.754-4.959,9.748c-0.094,4.156-0.632,8.305-0.658,12.459c-0.031,5.072,2.728,7.811,7.56,7.959
	c4.888,0.15,8.277-2.802,8.55-7.738c0.211-3.82,0.046-7.659,0.173-11.486c0.143-4.3-0.212-8.313-4.7-11.151
	c4.376,0,8.753,0,13.129,0c-5.735,3.198-4.289,8.526-4.501,13.28c-0.141,3.152-0.071,6.336-0.502,9.449
	c-1.126,8.126-7.208,12.027-16.501,10.81c-8.762-1.147-13.005-6.08-12.242-14.271c0.37-3.977,1.076-7.95,1.086-11.926
	C276.374,556.522,275.477,553.681,274.771,549.621z"/>
<path d="M515.134,171.884c0.012,0.007-0.675-0.203-1.076-0.663c-3.056-3.504-6.274-6.901-8.961-10.673
	c-1.017-1.428-1.355-3.876-0.996-5.655c1.414-7.015,8.355-12.512,15.401-11.299c3.579,0.616,6.732,3.705,11.36,6.433
	c1.355-1.636,3.658-4.417,6.586-7.954c1.269,1.547,3.362,3.682,4.823,6.186c0.341,0.584-1.199,2.781-2.33,3.622
	c-6.371,4.734-12.957,9.179-19.299,13.949C518.698,167.291,517.293,169.467,515.134,171.884z M526.13,151.671
	c-1.205-0.983-2.119-2.243-3.307-2.602c-3.639-1.1-12.762,5.577-13.081,9.363c-0.268,3.181,1.868,4.729,4.729,2.965
	c3.47-2.139,6.597-4.842,9.825-7.362C524.892,153.571,525.26,152.814,526.13,151.671z"/>
<path d="M541.129,386.393c0.302,0.074,0.613,0.118,0.909,0.211c5.256,1.648,10.442,3.418,15.941,4.357
	c1.512,0.258,3.727,4.534,3.299,6.45c-1.146,5.14-3.547,10-5.164,14.223c-2.943-1.637-5.034-2.834-7.155-3.974
	c-4.158-2.235-4.121-6.062-3.695-9.947c0.134-1.221,0.814-2.382,1.243-3.57c-0.474-0.331-0.947-0.662-1.421-0.993
	c-0.996,1.422-2.172,2.753-2.952,4.284c-1.752,3.441-3.173,7.433-8.07,6.614c-2.108-0.353-4.537-1.489-5.899-3.065
	c-3.444-3.986-0.017-16.986,4.74-19.204C536.283,380.205,539.186,381.832,541.129,386.393z M535.113,387.204
	c-0.657-0.045-1.314-0.091-1.971-0.136c-1.263,2.003-3.232,3.91-3.523,6.046c-0.172,1.262,2.31,2.886,3.599,4.347
	c1.449-2.135,3.239-4.136,4.163-6.478C537.709,390.15,535.93,388.487,535.113,387.204z M557.963,402.095
	c0.294-0.754,0.587-1.508,0.881-2.262c-2.088-1.311-4.06-2.918-6.316-3.798c-1.012-0.395-2.592,0.668-3.915,1.069
	c0.677,1.161,1.098,2.962,2.081,3.354C552.973,401.366,555.523,401.593,557.963,402.095z"/>
<path d="M50.335,304.587c-2.331,2.404-6.506,3.656-9.526,0.899c-2.253-2.057-3.197-6.24-3.472-9.579
	c-0.29-3.518,0.908-7.159,1.464-10.798c7.019,3.143,16.547,3.486,13.515,16.437c0.834-0.431,1.669-0.862,2.503-1.293
	c0.431-2.039,1.021-4.06,1.262-6.122c0.695-5.956,2.556-8.255,7.058-8.408c4.528-0.154,7.853,2.673,8.283,8.036
	c0.298,3.714,0.055,7.673-0.953,11.237c-1.09,3.85-5.02,4.321-8.277,1.814c-0.977-0.752-2.489-0.896-3.79-1.121
	C56.109,305.292,53.787,305.048,50.335,304.587z M60.504,297.805c2.182,1.714,4.198,4.011,4.853,3.672
	c1.698-0.877,4.068-3.149,3.831-4.432c-0.344-1.86-2.744-3.341-4.268-4.983C63.68,293.675,62.44,295.287,60.504,297.805z
	 M45.011,300.927c1.993-1.51,3.438-2.605,4.882-3.7c-1.605-0.863-3.23-2.44-4.811-2.397c-1.755,0.048-3.469,1.574-5.201,2.457
	C41.382,298.351,42.882,299.416,45.011,300.927z"/>
<path d="M313.85,48.032c1.187,2.347,1.889,5.217,3.696,6.897c1.842,1.712,4.714,2.772,7.253,3.054
	c1.027,0.114,3.607-2.962,3.315-3.936c-0.673-2.243-2.386-4.42-4.213-6.005c-1.947-1.688-4.739-2.382-6.757-4.012
	c-3.735-3.016-4.596-9.846-2.073-13.672c2.577-3.908,9.195-5.771,13.885-3.943c1.777,0.693,3.588,1.301,5.453,1.973
	c0,3.106,0,6.413,0,9.72c-0.359,0.105-0.717,0.209-1.076,0.314c-1.143-2.221-1.96-4.72-3.534-6.575
	c-1.229-1.448-3.368-2.781-5.163-2.865c-1.231-0.057-3.696,2.209-3.61,3.275c0.159,1.97,1.505,4.071,2.895,5.64
	c1.009,1.139,2.889,1.503,4.374,2.226c6.832,3.326,9.02,8.706,6.258,15.375c-1.994,4.815-8.576,7.314-14.504,5.567
	c-2.501-0.737-5.042-1.342-8.403-2.229c0.158-3.325,0.334-7.058,0.511-10.79C312.721,48.042,313.286,48.037,313.85,48.032z"/>
<path d="M50.627,384.821c-1.572,1.658-3.619,3.082-4.587,5.04c-1.014,2.051-1.858,4.93-1.153,6.853
	c0.567,1.547,3.495,2.976,5.475,3.123c6.499,0.485,12.496-1.338,17.65-5.519c5.341-4.333,4.868-9.723-1.163-13.109
	c-1.355-0.761-2.717-1.509-4.411-2.45c7.818-2.319,15.22,5.321,14.006,13.738c-1.197,8.298-10.702,15.29-20.337,14.961
	c-8.986-0.307-14.364-5.613-15.322-15.073c-0.18-1.778-0.486-3.543-0.795-5.76c3.462-1.048,6.822-2.065,10.182-3.082
	C50.323,383.969,50.475,384.395,50.627,384.821z"/>
<path d="M163.64,543.847c-3.066,0.055-6.301,0.772-9.168,0.043c-9.858-2.508-16.335-12.576-8.657-21.986
	c3.611-4.426,10.92-5.033,17.26-1.222c5.494,3.303,7.392,7.977,5.589,12.758c-1.164,3.086-2.955,3.262-5.394,1.887
	c-2.135-1.204-4.088-2.777-6.307-3.773c-1.535-0.689-3.386-0.675-5.096-0.975c0.092,2.204-0.68,5.254,0.467,6.426
	c2.023,2.068,5.174,3.087,7.944,4.341c0.92,0.417,2.125,0.206,3.199,0.282C163.532,542.368,163.586,543.108,163.64,543.847z
	 M161.485,522.447c-0.716-0.209-1.433-0.418-2.149-0.627c-1.45,1.385-2.9,2.771-4.35,4.156c1.55,1.264,3.101,2.527,5.923,4.827
	C161.164,527.088,161.324,524.767,161.485,522.447z"/>
<path d="M396.554,76.495c-2.385-0.91-5.548-2.117-8.882-3.389c5.199-6.367,8.364-12.878,8.192-21.089
	c0.413-0.072,1.223-0.451,1.918-0.299c5.077,1.105,9.054,5.159,14.595,5.351c0.92,0.032,2.561,2.774,2.457,4.157
	c-0.256,3.4-1.28,6.751-2.1,10.096c-0.769,3.134-1.673,6.235-2.833,10.515c-2.668-0.999-6.031-2.258-8.241-3.085
	c2.393-5.828,4.549-10.663,6.277-15.646c0.341-0.982-0.83-3.514-1.544-3.614c-1.322-0.185-3.669,0.527-4.103,1.516
	C400.217,65.737,398.644,70.684,396.554,76.495z"/>
<path d="M230.518,71.852c2.765-6.275-0.278-17.471-5.545-22.11c1.203-0.72,2.177-1.583,3.309-1.931
	c4.043-1.244,8.36-0.905,12.228-3.675c2.471-1.77,5.939-0.212,7.384,3.02c1.21,2.706,1.956,5.617,2.982,8.409
	c1.142,3.108,2.369,6.184,3.785,9.86c-2.645,0.692-6.057,1.584-8.696,2.275c-1.258-5.695-2.291-11.045-3.74-16.281
	c-0.246-0.89-2.287-1.773-3.478-1.746c-0.848,0.02-2.411,1.609-2.369,2.433c0.284,5.552,1.254,10.971,5.17,16.383
	C238.305,69.478,234.887,70.52,230.518,71.852z"/>
<path d="M126.432,110.503c-0.757-6.764,5.029-11.825,11.635-12.226c5.897-0.359,12.751,7.339,12.905,13.76
	c0.134,5.562-5.81,11.551-11.491,11.578C133.05,123.647,126.584,117.149,126.432,110.503z M145.882,117.326
	c-0.26-5.253-7.74-13.829-11.48-14.421c-2.709-0.429-3.987,1.044-3.142,3.465c1.853,5.31,5.099,9.72,10.379,12.01
	C142.786,118.878,144.677,117.659,145.882,117.326z"/>
<path d="M69.754,243.457c-0.081,7.129-4.95,11.707-12.209,11.478c-7.33-0.231-12.998-5.299-13.023-11.645
	c-0.029-7.24,4.865-11.804,12.517-11.674C64.309,231.74,69.829,236.88,69.754,243.457z M60.956,248.656
	c1.989-0.99,3.853-1.918,5.716-2.845c-1.427-1.722-2.524-4.198-4.354-4.999c-3.263-1.428-6.937-2.176-10.505-2.515
	c-1.39-0.132-2.959,1.613-4.446,2.503c0.825,1.324,1.347,3.291,2.532,3.848C53.27,246.233,56.912,247.243,60.956,248.656z"/>
<path d="M56.074,378.091c-7.421,0.175-11.713-3.86-12.094-11.373c-0.309-6.099,6.02-11.836,13.253-12.011
	c6.821-0.165,11.881,4.789,12.002,11.75C69.352,373.294,64.141,377.901,56.074,378.091z M61.456,361.034
	c-4.292,1.453-8.103,2.485-11.662,4.081c-1.317,0.591-2.04,2.505-3.034,3.816c1.6,0.892,3.315,2.686,4.778,2.5
	c3.855-0.489,7.715-1.548,11.333-2.986c1.489-0.592,2.363-2.734,3.516-4.171C64.772,363.212,63.155,362.15,61.456,361.034z"/>
<path d="M75.615,223.772c-0.979,2.798-2.206,6.305-3.513,10.041c-6.395-5.651-16.742-8.387-20.658-6.216
	c-2.19-2.043-4.092-4.073-6.251-5.778c-4.559-3.601-6.166-8.373-3.519-12.549c0.907-1.43,2.909-2.672,4.568-2.914
	c0.878-0.128,3.084,2.25,2.921,3.19c-0.227,1.309-2.106,2.336-3.291,3.471c-0.335,0.321-0.712,0.598-1.33,1.11
	c3.885,3.527,7.414,4.571,11.339-0.967c-1.41,7.257,4.026,7.156,7.665,8.34C67.256,222.705,71.263,222.996,75.615,223.772z"/>
<path d="M388.667,66.099c-3.045,4.836-6.358,5.857-10.199,5.044c-4.747-1.005-8.148-3.676-9.065-8.752
	c-1.051-5.814,1.975-12.259,7.184-15.274c4.494-2.601,8.803-1.238,11.681,2.178c1.812,2.151,1.905,5.847,2.383,8.91
	c0.064,0.412-2.105,1.594-3.285,1.664c-1.207,0.071-2.444-1.059-3.713-1.178c-2.152-0.202-4.339-0.022-6.512-0.002
	c0.064,2.124-0.667,4.895,0.398,6.205c1.283,1.578,4.035,2.162,6.266,2.682C384.853,67.821,386.17,66.909,388.667,66.099z
	 M381.427,56.962c1.5-2.065,2.857-3.145,2.99-4.359c0.111-1.017-1.207-2.19-1.892-3.294c-1.19,1.117-2.738,2.059-3.41,3.43
	C378.806,53.37,380.21,54.842,381.427,56.962z"/>
<path d="M565.85,327.595c0-2.634,0.24-4.965-0.07-7.221c-0.288-2.098,1.024-5.574-3.419-5.045
	c-3.678,0.437-6.044,2.225-5.631,6.091c0.211,1.977,1.448,3.844,2.486,6.416c-4.517-1.389-6.244-4.347-6.631-8.028
	c-0.533-5.082,2.638-10.318,6.712-11.792c6.466-2.339,13.829,0.079,17.062,5.581c2.134,3.632,2.226,7.284-0.048,10.84
	C574.212,327.72,571.342,328.562,565.85,327.595z M569.845,315.02c-0.673,0.802-1.347,1.605-2.02,2.407
	c1.274,1.285,2.549,2.571,3.823,3.856c1.016-1.064,2.032-2.128,3.047-3.192C573.079,317.067,571.462,316.044,569.845,315.02z"/>
<path d="M377.002,552.044c-2.071,8.271-3.753,15.444-5.736,22.532c-0.402,1.438-1.796,3.388-2.997,3.599
	c-1.306,0.229-3.348-0.936-4.328-2.112c-4.692-5.632-9.132-11.473-14.085-17.778c4.208-0.923,8.568-1.88,13.11-2.876
	c-0.435,6.012,1.864,10.193,6.496,12.543c3.431-6.74,3.182-9.153-2.007-13.21C370.889,553.772,373.816,552.945,377.002,552.044z"/>
<path d="M228.161,66.004c0.627,4.837-1.424,7.656-4.585,9.305c-3.775,1.97-7.973,2.58-11.761-0.21
	c-4.771-3.514-5.703-8.529-5.526-14.153c0.157-4.986,3.536-6.609,7.185-8.452c3.575-1.805,6.478-0.563,9.125,1.615
	c3.839,3.16,3.164,6.328-1.492,7.981c-0.773,0.274-1.507,0.691-2.208,1.124c-1.416,0.876-4.092,2.131-3.96,2.659
	c0.487,1.955,1.507,4.439,3.089,5.268c1.513,0.792,4.175,0.214,5.959-0.589C225.463,69.886,226.396,68.015,228.161,66.004z
	 M218.403,60.282c-1.572-2.182-2.668-3.702-3.763-5.223c-0.843,0.761-2.499,1.706-2.377,2.249c0.37,1.64,1.302,3.224,2.349,4.571
	C214.79,62.108,216.618,61.054,218.403,60.282z"/>
<path d="M560.005,305.905c-5.466-1.313-8.154-5.756-7.264-11.002c1.101-6.485,7.133-10.132,15.309-9.254
	c5.753,0.618,10.191,5.887,9.891,11.742c-0.294,5.736-3.647,8.405-11.286,8.465c-0.15-2.361-0.146-4.801-0.509-7.186
	c-0.252-1.656-0.789-4.462-1.584-4.605c-1.893-0.34-4.735-0.055-5.856,1.186c-1.277,1.413-1.509,4.158-1.409,6.287
	C557.359,302.884,558.862,304.161,560.005,305.905z M571.714,299.527c1.382-1.819,2.228-2.931,3.074-4.044
	c-1.257-0.756-2.463-1.932-3.793-2.094c-0.672-0.082-2.222,1.693-2.186,2.582C568.846,296.94,570.26,297.854,571.714,299.527z"/>
<path d="M50.416,277.316c9.672,0.311,11.489-2.573,8.197-11.329c3.639,1.233,4.756,2.766,5.21,7.04
	c0.465,4.368-0.975,8-4.691,10.3c-5.763,3.566-14.286,1.749-18.474-3.524c-2.787-3.508-2.632-7.422-0.558-10.741
	c1.396-2.235,4.171-4.126,6.728-4.992c3.537-1.199,5.267,0.861,4.72,4.62C51.15,271.423,50.826,274.168,50.416,277.316z
	 M46.087,270.096c-2.078,1.39-3.336,2.233-4.595,3.075c1.42,1.165,2.727,2.57,4.338,3.331c0.415,0.196,2.456-1.579,2.538-2.551
	C48.457,272.901,47.127,271.731,46.087,270.096z"/>
<path d="M49.251,321.298c8.966,0.178,10.426-3.521,5.655-12.789c5.266,1.003,8.193,5.434,7.354,11.143
	c-0.976,6.646-5.548,9.43-13.663,9.504c-6.814,0.063-11.825-5.004-11.484-11.189c0.124-2.246,1.154-5.072,2.777-6.443
	c1.915-1.617,4.919-1.943,7.452-2.829c0.49,2.142,1.098,4.266,1.436,6.432C49.083,317.078,49.093,319.075,49.251,321.298z
	 M46.215,323.341c0-3.582,0-5.266,0-8.675c-2.689,1.817-4.444,3.003-6.2,4.189C41.704,320.077,43.393,321.299,46.215,323.341z"/>
<path d="M430.757,67.966c-5.716,1.774-10.149,9.579-8.858,14.329c1.436,5.286,5.248,3.768,9.012,2.669
	c-2.308,5.233-9.909,5.36-14.088,0.808c-3.136-3.415-3.258-9.27-0.302-14.439c2.909-5.086,7.713-7.708,12.821-6.013
	c2.72,0.903,5.472,2.998,7.11,5.328c0.806,1.147-0.646,4.171-1.597,6.088c-0.292,0.589-3.3,0.636-3.375,0.399
	c-0.582-1.851-0.825-3.825-1.019-5.776C430.369,70.435,430.612,69.477,430.757,67.966z"/>
<path d="M356.331,59.594c-2.664,1.41-5.407,4.075-7.971,3.913c-3.215-0.203-7.331-1.937-9.193-4.413
	c-3.574-4.754-2.406-10.207,0.518-15.385c2.612-4.628,6.901-4.801,11.151-4.713c4.769,0.099,7.841,4.088,6.288,7.821
	c-0.509,1.223-2.104,1.995-3.202,2.973c-1.106-1.249-2.51-2.352-3.22-3.796c-0.512-1.041-0.1-2.536-0.1-5.06
	c-1.786,1.438-3.605,2.158-3.843,3.228c-0.847,3.803-1.906,7.812-1.476,11.583c0.537,4.713,3.787,5.239,10.016,2.311
	C355.643,58.568,355.987,59.081,356.331,59.594z"/>
<path d="M359.283,41.793c1.87,0,3.193-0.13,4.483,0.024c3.909,0.467,5.832,1.769,4.355,6.495
	c-1.714,5.484-2.28,11.326-3.497,17.827c-2.132-0.296-5.715-0.793-9.825-1.363C359.686,59.628,361.899,48.136,359.283,41.793z"/>
<path d="M343.173,544.013c1.869,3.288,3.713,5.118,3.632,6.859c-0.06,1.272-2.735,3.458-4.096,3.351
	c-1.471-0.116-3.912-2.469-3.861-3.764C338.916,548.73,340.979,547.079,343.173,544.013z"/>
<path d="M206.476,539.96c-2.086-2.781-4.302-4.496-4.053-5.703c0.35-1.697,2.449-4.076,3.947-4.188
	c1.37-0.102,3.906,2.282,4.13,3.831C210.706,535.319,208.507,537.085,206.476,539.96z"/>
<path d="M581.385,364.148c-2.136-2.753-4.151-4.261-4.348-5.978c-0.136-1.183,2.642-3.972,3.425-3.737
	c1.916,0.575,3.993,2.214,4.853,3.985C585.707,359.227,583.38,361.356,581.385,364.148z"/>
<path d="M439.413,510.496c2.039,2.657,4.173,4.235,4.252,5.91c0.067,1.41-2.255,2.934-3.52,4.407
	c-1.588-1.526-3.832-2.814-4.504-4.671C435.272,515.123,437.552,513.145,439.413,510.496z"/>
<path d="M101.792,125.764c-3.012,1.877-4.959,3.949-6.041,3.568c-1.746-0.615-2.922-2.847-4.339-4.396
	c1.406-1.242,2.862-3.526,4.204-3.46C97.278,121.557,98.844,123.587,101.792,125.764z"/>
<path d="M586.01,246.81c-2.978,2.087-4.595,4.11-6.031,3.988c-1.568-0.133-2.969-2.25-4.443-3.502
	c1.367-1.345,2.586-3.51,4.144-3.791C581.087,243.251,582.866,245.059,586.01,246.81z"/>
<path d="M368.253,29.1c0.954,1.574,2.772,3.236,2.624,4.699c-0.156,1.542-1.967,3.761-3.452,4.144
	c-2.856,0.737-4.366-1.625-3.994-4.162c0.246-1.676,1.88-3.149,2.892-4.713C366.967,29.079,367.61,29.089,368.253,29.1z"/>
<path d="M165.071,354.742c-1.59,2.128-3.004,4.091-4.489,5.998c-17.95,23.044-18.873,49.769-1.715,73.317
	c6.918,9.494,16.574,16.1,28.024,19.466c39.974,11.752,78.219-22.07,70.569-64.12c-1.175-6.457-4.427-12.535-7.701-18.711
	c2.418,24.652-6.039,42.884-29.986,50.692c-21.026,6.856-38.552-4.915-45.551-15.953c-12.615-19.895-10.483-34.143,7.708-56.882
	c-4.422-0.834-8.767-1.396-12.971-2.493c-16.391-4.277-28.514-17.708-30.365-34.35c-1.957-17.602,4.726-31.729,19.606-41.189
	c8.266-5.255,17.787-6.609,27.808-5.575c23.477,2.422,44.124,12.26,64.372,23.383c6.889,3.784,6.912,3.742,5.582,12.264
	c-3.612,23.154,10.942,47.152,33.397,55.092c2.187,0.773,4.341,1.643,7.014,2.659c-1.285,1.123-2.23,2.219-3.405,2.938
	c-23.544,14.408-30.334,47.864-10.981,71.292c8.391,10.158,19.754,15.203,32.68,17.104c11.091,1.631,19.606,7.593,24.486,17.491
	c5.51,11.175,5.267,22.651-2.344,33.056c-2.98,4.073-6.892,7.464-10.229,11.876c4.693-2.608,9.808-4.672,14.003-7.923
	c14.417-11.175,20.877-26.233,18.571-44.265c-2.276-17.79-12.135-30.656-28.643-37.874c-4.642-2.029-9.815-3.17-14.863-3.881
	c-14.142-1.992-22.831-10.312-26.615-23.432c-3.608-12.511-0.175-23.742,9.523-32.585c1.899-1.732,4.962-2.887,7.56-3.033
	c11.038-0.62,21.335-3.394,30.439-9.706c2.849-1.975,4.044-0.967,6.183,1.015c14.961,13.858,21.394,32.877,30.684,50.155
	c6.976,12.976,15.91,24.034,29.357,30.742c11.738,5.855,24.325,6.063,37.037,5.126c15.837-1.168,29.159-7.927,41.514-19.629
	C442.854,484.276,354.251,529.925,262,509.482C161.632,487.24,91.326,394.651,100.605,288.814
	c8.609-98.194,85.215-171.578,169.404-184.262c-29.219,12.976-50.564,33.498-60.783,64.17c-10.268,30.82-6.28,60.29,9.507,88.76
	c-5.503-3.117-11.015-6.219-16.509-9.353c-13.827-7.887-28.882-9.694-43.864-5.909c-23.062,5.827-38.439,20.628-45.399,43.751
	c-8.339,27.701,8.736,54.979,35.052,63.919C153.329,351.695,158.822,352.98,165.071,354.742z"/>
<path class="st1" d="M360.417,288.897c12.202-6.326,21.443-15.798,30.235-26.156c0.073,11.14-1.088,22.106,4.841,33.47
	c2.43-31.575,17.912-48.761,49.259-45.813c16.661,1.567,30.118,13.904,33.666,32.346c2.155,11.2,0.474,22.257-6.203,32.058
	c-6.469,9.495-15.856,14.685-27.405,17.805c1.382,1.311,2.036,2.229,2.926,2.733c15.752,8.916,23.967,24.994,21.651,42.045
	c-2.498,18.391-16.02,31.637-32.385,35.785c-9.557,2.422-19.13,0.046-28.058-4.314c-18.773-9.169-33.101-23.255-44.916-40.207
	c-6.092-8.741-13.01-16.695-23.879-21.941c17.208-15.284,21.643-34.679,16.027-55.123c-3.424-12.464-12.667-22.52-24.72-29.344
	c-22.409-12.689-58.937-6.914-73.412,27.263c-25.531-14.966-44.705-58.578-27.066-98.787c20.85-47.528,73.657-61.497,113.349-41.697
	c26.98,13.46,42.394,35.756,45.71,65.654C393.328,244.34,382.226,268.812,360.417,288.897z"/>
<path d="M490.747,399.795c0.087-1.278,0.048-2.579,0.28-3.83c4.648-25.038-5.886-43.452-25.219-58.081
	c-1.238-0.937-2.18-2.266-3.26-3.412c1.236-0.976,2.342-2.225,3.728-2.889c31.181-14.93,41.447-44.962,32.185-75.551
	c-6.865-22.672-31.046-38.252-54.658-36.825c-13.075,0.79-24.67,4.86-34.342,13.919c-1.06,0.993-2.474,1.608-4.365,2.804
	c14.242-59.306-5.615-102.594-58.918-130.483c20.602-6.439,93.186,36.746,119.851,69.286
	C526.512,248.543,522.803,342.282,490.747,399.795z"/>
</svg>
