<?xml version="1.0" encoding="utf-8"?>
<!-- Generator: Adobe Illustrator 22.1.0, SVG Export Plug-In . SVG Version: 6.00 Build 0)  -->
<svg version="1.1" id="Layer_1" xmlns="http://www.w3.org/2000/svg" xmlns:xlink="http://www.w3.org/1999/xlink" x="0px" y="0px"
	 viewBox="0 0 259.0102844 259.0116882" style="enable-background:new 0 0 259.0102844 259.0116882;" xml:space="preserve">
<g>
	<g>
		<path d="M85.3394012,240.2050934l-0.1924057,0.0820007c-1.0546951-0.5625-2.3661957-1.1992035-3.9336014-1.9082031
			c-1.5302963-0.6932983-3.1561966-1.3885956-4.8798981-2.0858917l-0.0702972-0.1875l0.3212967-0.7089996l0.1924057-0.0547028
			c0.4160004,0.1347961,0.8192978,0.2695923,1.2061005,0.4082031c0.6922989,0.2480927,1.1483994,0.375,1.3700943,0.3808899
			c0.1601028,0,0.3378983-0.0937958,0.5332031-0.2773895c0.3125-0.2988129,1.0546951-1.7402039,2.2265015-4.3242035
			L83.4263,228.628891c0.3955002-0.8672028,0.8778992-1.9785004,1.4521942-3.3260956l0.3740005-0.8847961
			c0.1748047-0.3887024,0.180603-0.6191101,0.0185013-0.6914063c-0.0702896-0.0332031-0.339798-0.0469055-0.8086014-0.0448914
			c-1.2850952,0.0077972-2.3924942,0.0233917-3.322197,0.0526886l-0.1034927-0.1464996
			C81.1918945,223.125,81.3334961,222.5956879,81.4623947,222l0.0538025-0.0879059
			c2.4169006,0.3652954,5.180603,0.6407013,8.288002,0.8222961l0.1660995,0.285202
			c-0.2383041,0.4452972-0.5899048,1.1035004-1.0518036,1.9785004c-0.1786957,0.3301086-0.6181946,1.2382965-1.3153992,2.7167969
			l-2.1093903,4.5605011c-1.4844055,3.2774048-2.2266083,5.058609-2.2266083,5.3496094
			c-0.0038986,0.2128906,0.0634995,0.375,0.2022018,0.4843903c0.2430954,0.2031097,0.9404068,0.6035004,2.0936966,1.2012024
			l0.0977097,0.1855011L85.3394012,240.2050934z"/>
		<path d="M120.6138,242.9199982c-0.1328049,0.9980011-0.4502029,1.8535004-0.9502029,2.566391
			c-0.9512024,1.3574066-2.3163986,2.1914063-4.089798,2.5c-0.7304993,0.1269073-1.5996017,0.125-2.6016006-0.0097961
			c-2.1406021-0.285202-3.6854935-1.2285004-4.6387024-2.8300934c-0.4247894-0.7148132-0.5653992-1.6015015-0.4256973-2.6582031
			c0.1717987-1.2871094,0.7714005-2.273407,1.7967987-2.960907c0.3378983-0.222702,1.0567017-0.5175934,2.1563034-0.8827972
			c-1.7754059-1.2149048-2.5459061-2.7032013-2.3125-4.4589996c0.2655945-1.9823914,1.4628983-3.3027954,3.5927963-3.9550934
			c0.9237976-0.285202,1.9403992-0.3535004,3.0477982-0.2051086c1.6288986,0.2149048,2.8633041,0.7539063,3.7031021,1.6112976
			c0.7958984,0.8184052,1.1182022,1.7891083,0.9698029,2.9141083c-0.2031937,1.5253906-1.2725067,2.6483917-3.2100067,3.3692017
			c1.2578125,0.6795959,2.1133041,1.4276886,2.5625,2.2420959
			C120.6264954,240.9003906,120.7602997,241.8202972,120.6138,242.9199982z M117.2495956,243.9667969
			c0.1650009-1.2265015-0.3222961-2.2324066-1.4609985-3.0156097c-0.7422028-0.5155945-1.5438919-1-2.4082031-1.4550934
			l-0.3651962-0.1894073c-1.4688034,0.7480011-2.294899,1.8222046-2.482399,3.2187042
			c-0.1074982,0.8125-0.0293045,1.4882965,0.2352982,2.035202c0.5878983,1.2225952,1.5547028,1.9257965,2.8993988,2.1035004
			c0.9375,0.125,1.7383041-0.0644989,2.4033051-0.5702972C116.7358932,245.5878906,117.1284943,244.878891,117.2495956,243.9667969z
			 M118.3998947,234.5859985c0.1114044-0.8359985-0.0760956-1.5429993-0.5625-2.125
			c-0.4862976-0.5801086-1.2030945-0.9317017-2.1502991-1.0606079c-0.8516006-0.1112976-1.5606003,0.0371094-2.125,0.4472961
			c-0.5234985,0.3808136-0.8291016,0.9004059-0.9169998,1.5547028c-0.0859985,0.648407,0.1396103,1.277298,0.6748047,1.8847046
			c0.2831955,0.324295,0.7206955,0.664093,1.3085938,1.0195923c0.2031021,0.1328125,0.5175018,0.3222046,0.9355011,0.5683136
			l0.7285004,0.3964996C117.5268936,236.7597961,118.228096,235.8652954,118.3998947,234.5859985z"/>
		<path d="M150.6949005,236.4062958c0.3125,2.2577972,0.1210938,4.1893921-0.5723114,5.7948914
			c-0.7304993,1.6895142-1.8125,3.1016083-3.2460938,4.2383118c-1.4774933,1.1660004-3.1767883,1.8827972-5.097702,2.1483917
			l-1.2362976-0.6737976l0.2734985-0.5449066c0.2958984,0.0547028,0.6513062,0.0527039,1.0682983-0.0058899
			c1.4756012-0.2051086,2.6983032-0.8769073,3.6699066-2.0176086c0.3887024-0.4530945,0.7285919-1.0370941,1.0146942-1.7557983
			c0.460907-1.128891,0.6660004-2.7167969,0.6141968-4.7577972c-1.2480011,1.363205-1.9510956,2.0644073-2.1092987,2.1035004
			c-0.5966949,0.2890015-1.2548981,0.4844055-1.9736938,0.5839996c-1.2588043,0.1737976-2.3426971-0.101593-3.2528992-0.8262024
			c-0.9746094-0.7753906-1.5693054-1.9394989-1.7841949-3.4882965c-0.3437042-2.4862976,0.3700867-4.4589996,2.1454926-5.9199066
			c0.8399048-0.6894989,1.9317017-1.1269989,3.2754059-1.3144989c2.5351868-0.3495941,4.4843903,0.4610138,5.8466949,2.433609
			C150.0054016,233.3769989,150.4595032,234.7128906,150.6949005,236.4062958z M146.8100891,235.6035004
			c-0.2187958-1.5742035-0.6366882-2.7050018-1.2519989-3.3925018c-0.6151886-0.6875-1.3631897-0.968811-2.2440948-0.8496094
			c-1.0879059,0.152298-1.7509918,0.7871094-1.9922028,1.9043121c-0.128891,0.5995941-0.1405945,1.2870941-0.0332031,2.0625
			c0.1817017,1.3182983,0.5918121,2.2948914,1.2305145,2.9256897c0.6014862,0.5957031,1.3378906,0.8301086,2.2089996,0.7089996
			c1.1171875-0.1542969,1.8026886-0.7030945,2.0565948-1.6503906
			C146.897995,236.8808899,146.9077911,236.3105927,146.8100891,235.6035004z"/>
		<path d="M180.7631989,231.0859985c0.4023895,0.9237976,0.5742035,1.8182983,0.5175934,2.6893921
			c-0.1112976,1.6524048-0.8457031,3.0702972-2.2040863,4.2559052c-0.558609,0.4882965-1.3018036,0.9355011-2.2295074,1.339798
			c-1.9766083,0.8652954-3.7881012,0.8594055-5.4316101-0.0155945c-0.7343903-0.3926086-1.3144989-1.0762024-1.7421875-2.0527039
			c-0.5196075-1.1894989-0.5196075-2.3437958,0.0018921-3.4649048c0.1739044-0.3652039,0.6347961-0.9902039,1.3858032-1.8710938
			c-2.1475067-0.121109-3.5762024-0.9922028-4.2861938-2.6152039c-0.8027039-1.8358917-0.4619141-3.5839996,1.0214996-5.2460938
			c0.6436005-0.722702,1.476593-1.3066101,2.5-1.7539063c1.5058899-0.6582031,2.8398895-0.8379059,4.0019989-0.5410004
			c1.1044922,0.2870941,1.8846893,0.9510956,2.339798,1.9902039c0.6172028,1.410202,0.2832031,2.9257965-0.9990082,4.5448914
			c1.4277039-0.0702972,2.5458984,0.125,3.3545074,0.5879059
			C179.7280884,229.3554993,180.3179016,230.0722961,180.7631989,231.0859985z M174.5513,225.1054993
			c-0.3368988-0.7714996-0.864212-1.2793121-1.5810089-1.5254059c-0.7177887-0.2422028-1.5137024-0.1737976-2.3887024,0.2089996
			c-0.7880859,0.3437042-1.316391,0.839798-1.5878906,1.4824066c-0.25,0.5956879-0.2422028,1.1972961,0.0233917,1.8046875
			c0.2617035,0.5996094,0.7784119,1.0195007,1.5518036,1.2617035c0.4111023,0.1327972,0.9618988,0.1952972,1.6493988,0.1952972
			c0.2422028,0.0059052,0.6074066,0.0059052,1.0937958,0l0.8281097-0.0370941
			C174.930191,227.4179993,175.0679016,226.2870941,174.5513,225.1054993z M178.4291992,233.726593
			c-0.496109-1.1347961-1.433609-1.7422028-2.8134003-1.8242035c-0.9013977-0.0547028-1.8388977-0.0547028-2.8135071,0.0057983
			l-0.410202,0.0254059c-0.8680878,1.4004059-1.0184937,2.75-0.4549866,4.039093
			c0.3280945,0.75,0.7459869,1.2890015,1.2557983,1.6191101c1.1366882,0.7422028,2.3271942,0.8398895,3.5702972,0.2968903
			c0.8652954-0.378891,1.4521942-0.9570007,1.7597961-1.7323914
			C178.8287048,235.378891,178.7984009,234.5683899,178.4291992,233.726593z"/>
	</g>
	<g>
		<path d="M79.0952988,10.1796999C63.6733971,16.7031994,49.8247032,26.0409985,37.9321976,37.9375
			C26.0390987,49.8300972,16.7012005,63.6796989,10.1782999,79.1035004C3.4247999,95.0722961,0,112.0312958,0,129.5137024
			c0,17.4843903,3.4247999,34.4452972,10.1782999,50.414093c6.5229006,15.4199066,15.8607988,29.2695007,27.7538986,41.1600952
			c11.8925056,11.8906097,25.7411995,21.2266083,41.1631012,27.75c15.9667969,6.75,32.9237976,10.1737976,50.4061966,10.1737976
			s34.4434052-3.4237976,50.4111023-10.1737976c15.4228973-6.5233917,29.2724915-15.8593903,41.1661072-27.75
			c11.8924866-11.8905945,21.2313843-25.7401886,27.7528839-41.1600952
			c6.7539063-15.9687958,10.1786957-32.9297028,10.1786957-50.414093c0-17.4824066-3.4247894-34.4434052-10.1786957-50.410202
			c-6.5214996-15.4238014-15.8603973-29.2734032-27.7528839-41.1660004
			c-11.8936157-11.8965015-25.7432098-21.2343006-41.1661072-27.7578011C163.9449005,3.4257998,146.983902,0,129.5014954,0
			C112.0209961,0,95.0620956,3.4257998,79.0952988,10.1796999z M80.7631989,244.8925934
			c-14.9111023-6.3065948-28.3027-15.3339996-39.8031998-26.8339996
			c-11.5014992-11.4980011-20.5312004-24.8885956-26.8368988-39.7987976
			C7.5927997,162.8222961,4.2823,146.4218903,4.2823,129.5137024c0-16.9043045,3.3104997-33.3047028,9.8407993-48.7422028
			c6.3066053-14.9121017,15.3354006-28.3066025,26.8368988-39.8086014
			C52.4604988,29.4629002,65.8520966,20.4316998,80.7631989,14.125c15.4356003-6.5312004,31.8339996-9.8418007,48.7382965-9.8418007
			c16.9062958,0,33.3047028,3.3105998,48.7422028,9.8418007c14.9131012,6.3066998,28.3047028,15.3379002,39.8065948,26.8378983
			c11.5019989,11.5019989,20.5312958,24.8964996,26.8379059,39.8086014
			c6.5292969,15.4356003,9.8398895,31.8378983,9.8398895,48.7422028c0,16.9081879-3.3105927,33.3085938-9.8398895,48.7460938
			c-6.3066101,14.910202-15.335907,28.3007965-26.8379059,39.7987976c-11.5,11.5-24.8925018,20.5274048-39.8047028,26.8339996
			c-15.4375,6.5274048-31.8377991,9.835907-48.7440948,9.835907
			C112.5971985,254.7285004,96.1987991,251.4199982,80.7631989,244.8925934z"/>
	</g>
	<path d="M92.2241974,41.2636986C80.8218002,46.0878983,70.5805969,52.9921989,61.786705,61.7870979
		c-8.7929993,8.795002-15.698307,19.0351982-20.5215073,30.4374962c-4.9950981,11.8086014-7.525898,24.3496017-7.525898,37.2792969
		c0,12.9258118,2.5307999,25.4649048,7.525898,37.2734985c4.8232002,11.4043121,11.728508,21.6464996,20.5215073,30.4414063
		c8.7938919,8.7949066,19.0350952,15.7012024,30.4374924,20.5254059c11.805603,4.9960938,24.3436966,7.5292969,37.2685089,7.5292969
		c12.9316864,0,25.476593-2.5332031,37.286087-7.5292969c11.4062958-4.8242035,21.6484985-11.7304993,30.4454041-20.5254059
		c8.7938995-8.7949066,15.6992035-19.0370941,20.5223999-30.4414063
		c4.9942017-11.8066864,7.5263977-24.3476868,7.5263977-37.2734985c0-12.9296951-2.532196-25.4706955-7.5263977-37.2792969
		c-4.8231964-11.402298-11.7285004-21.6424942-20.5223999-30.4374962
		c-8.7969055-8.794899-19.0391083-15.6991997-30.4454041-20.5233994
		c-11.8085022-4.9921989-24.3544006-7.5253983-37.286087-7.5253983
		C116.567894,33.7383003,104.0298004,36.2714996,92.2241974,41.2636986z M93.3491974,215.0839996
		c-11.0567017-4.6777039-20.9902954-11.3769073-29.5195999-19.9082031
		c-8.5293007-8.5312042-15.2250977-18.464798-19.9032974-29.523407
		c-4.8428001-11.4491882-7.2983017-23.6113892-7.2983017-36.1484985c0-12.5409927,2.4555016-24.7030945,7.2983017-36.152298
		c4.6781998-11.0585938,11.3739967-20.9921951,19.9032974-29.5214958S82.290596,48.6035004,93.3491974,43.9258003
		c11.447197-4.8418007,23.607399-7.2988014,36.1435089-7.2988014c12.5429993,0,24.7099915,2.4570007,36.161087,7.2988014
		c11.0625,4.6777,20.996109,11.375,29.5263977,19.9042969c8.530304,8.5293007,15.2276001,18.4609032,19.905304,29.5214958
		c4.842804,11.4492035,7.2969055,23.6113052,7.2969055,36.152298c0,12.5371094-2.4541016,24.6993103-7.2969055,36.1484985
		c-4.6777039,11.058609-11.375,20.9922028-19.905304,29.523407c-8.531189,8.5312958-18.4638977,15.2304993-29.5263977,19.9082031
		c-11.4510956,4.8437958-23.6180878,7.2987976-36.161087,7.2987976
		C116.9565964,222.3827972,104.7963943,219.9277954,93.3491974,215.0839996z"/>
	<g>
		<path d="M19.663599,162.6699982c0.9013996-0.3437958,1.7471046-0.4551086,2.5375996-0.3339996
			c0.7905064,0.1210938,1.5122013,0.4297028,2.1655064,0.9217987c0.6767941,0.5097961,1.2719994,1.160202,1.7895947,1.949295
			C26.6718998,165.9960938,27.1348,166.9277954,27.5454998,168l0.4951,1.2968903l4.4721031-1.7070007
			c0.2685966-0.101593,0.4833946-0.2421875,0.6420975-0.4218903c0.1581993-0.1777039,0.2416992-0.4355011,0.2514992-0.7695007
			c0.0018997-0.1757965-0.0303001-0.4472961-0.0932999-0.8164063c-0.0634003-0.3672028-0.1289024-0.6757965-0.196701-0.9199982
			l0.8788986-0.3358917l3.3266029,8.7167969l-0.8789024,0.3339996c-0.1049995-0.2109985-0.2479973-0.4882965-0.4281921-0.8339996
			c-0.1797066-0.347702-0.3267059-0.5801086-0.4404068-0.7012024c-0.2324982-0.25-0.453701-0.3867035-0.6622009-0.4160004
			c-0.2080002-0.027298-0.4657974,0.0155945-0.7733955,0.1347961l-11.2524033,4.2949066
			c-0.2616997,0.0995941-0.4727001,0.2323914-0.6283989,0.3945007c-0.1568012,0.1660004-0.2417011,0.4218903-0.2535,0.7714996
			c-0.0083008,0.2460938,0.0185986,0.5585938,0.0805988,0.9355927c0.0625,0.3789063,0.1161995,0.6582031,0.1602001,0.8417969
			l-0.8789005,0.3339081l-3.3569984-8.7929077c-0.7861004-2.0566864-1.0439014-3.7226868-0.7763004-4.9902954
			C17.5024986,164.0800934,18.3115997,163.1875,19.663599,162.6699982z M21.8832989,166.816391
			c-1.1966991,0.4571075-1.9940987,1.0371094-2.3900986,1.7383118c-0.3964958,0.7030945-0.3599014,1.6698914,0.1093998,2.9003906
			l0.3544998,0.9277039l6.9940987-2.6679077l-0.1801987-0.4726868c-0.4662952-1.2207031-1.1035004-2.0430145-1.9120998-2.4668121
			C24.049799,166.3535004,23.0580997,166.3672028,21.8832989,166.816391z"/>
		<path d="M15.1264992,135.8672028l0.1084003,0.9335938c-0.6176996,0.3047028-1.2256002,0.7754059-1.8218002,1.4120941
			c-0.5951996,0.6367035-0.9208994,1.2383118-0.9764996,1.8047028c-0.0278959,0.2441101-0.0240002,0.5762024,0.0136003,1
			c0.0375996,0.4237976,0.0723,0.7714996,0.1045036,1.0487976l0.2836962,2.4375l6.5396004-0.7635956l-0.2017002-1.722702
			c-0.0508003-0.4355011-0.1484013-0.8222961-0.2925014-1.164093c-0.1439991-0.339798-0.3802986-0.6406097-0.7079983-0.898407
			c-0.2026005-0.1600952-0.5454006-0.3065948-1.0278015-0.4375c-0.4814987-0.1308899-0.8959999-0.2030945-1.2426996-0.2207031
			l-0.1088991-0.9315948l7.0620003-0.824295l0.1083984,0.9335938c-0.3295994,0.0859985-0.7367992,0.2559052-1.221199,0.5079041
			c-0.4834003,0.25-0.8120003,0.4745941-0.9828949,0.6717987c-0.2568054,0.2929993-0.4179058,0.6230927-0.4843044,0.9882965
			c-0.0669003,0.3672028-0.0733013,0.7812958-0.0186005,1.2481079l0.2011986,1.7245941l4.8984013-0.5722961
			c0.5112-0.058609,0.9120998-0.1445007,1.2031002-0.2559052c0.2901001-0.1092987,0.5038986-0.2753906,0.639204-0.5018921
			c0.1278954-0.2168121,0.1962948-0.5,0.2040958-0.8496094c0.0072994-0.351593-0.023901-0.8242035-0.0937004-1.4198914
			c-0.0323009-0.2774048-0.073801-0.6114044-0.1275005-0.9981079c-0.0536995-0.3887024-0.1171989-0.726593-0.1914005-1.0137024
			c-0.0785999-0.3300018-0.1737995-0.6346893-0.2865982-0.9160004c-0.1143017-0.2792969-0.2538967-0.4823914-0.4234009-0.6073914
			c-0.4330997-0.335907-1.0765991-0.6934052-1.9316006-1.0781097c-0.8540001-0.3827972-1.4888-0.625-1.9032993-0.7304993
			L22.3471985,133.8125l5.3066006-0.2910004l1.8540993,15.8925934l-0.9345989,0.1094055
			c-0.0419998-0.222702-0.1093998-0.5234985-0.2017002-0.9042969c-0.0937004-0.3789063-0.1805992-0.6464996-0.2632008-0.7989044
			c-0.1625996-0.2910004-0.3480988-0.4745941-0.5555992-0.5565948c-0.2070961-0.0820007-0.4629002-0.1054993-0.7656994-0.0684052
			l-11.9638004,1.3945923c-0.2856998,0.0332031-0.5175953,0.1054077-0.6947994,0.2168121
			c-0.1773005,0.1092987-0.3223,0.339798-0.4341002,0.6952972c-0.0707998,0.2187042-0.1245003,0.5214996-0.1602001,0.9082031
			c-0.0366001,0.3866882-0.0546999,0.6776886-0.0556002,0.8730011l-0.9345999,0.1093903l-1.7519999-15.0214996
			L15.1264992,135.8672028z"/>
		<path d="M30.4424,104.2929993L29.4888,110.9648972c-1.6963005,0.7851028-3.1230011,1.5038986-4.2821999,2.1621017
			c-1.1577015,0.6600952-2.6143017,1.5038986-4.3696003,2.5371017l-0.0894012,0.6190948l5.325201,0.7598038
			c0.2875996,0.0429993,0.5370998,0.0253983,0.7504997-0.0488052c0.2138004-0.0741959,0.4106007-0.2558975,0.5888004-0.5429993
			c0.0849991-0.1327972,0.178299-0.3339996,0.2827988-0.6054993c0.1030006-0.2695007,0.1909008-0.5410004,0.2617016-0.8125
			l0.9305992,0.1328049l-1.2826996,8.976593l-0.9316006-0.1347961c0.0151005-0.214798,0.0347004-0.5233994,0.0590992-0.9179001
			c0.023901-0.3964996,0.0160999-0.6797028-0.0243988-0.847702c-0.0708008-0.3007965-0.1968002-0.5214996-0.3803997-0.6600952
			c-0.1826-0.1387024-0.4243011-0.2305069-0.7271004-0.2735062l-11.9819002-1.7128983
			c-0.2782993-0.0410004-0.5190001-0.0253983-0.7241001,0.0410004c-0.2040997,0.0683975-0.4038,0.25-0.5995998,0.5449982
			c-0.1469994,0.2304001-0.2812996,0.5136032-0.4013996,0.8515015c-0.1216002,0.3399048-0.2095003,0.6113968-0.2645998,0.8223038
			l-0.9302006-0.1328049l1.3257008-9.2734985l0.9300995,0.1348038c-0.0096998,0.2481003-0.0179996,0.544899-0.0233955,0.8964996
			c-0.0054045,0.3495941,0.0136957,0.652298,0.0590954,0.9081955c0.0591002,0.3223038,0.1924,0.5508041,0.4004002,0.6836014
			c0.2094002,0.1348038,0.4491997,0.222702,0.7187004,0.2617035l5.7074986,0.8163986l0.0718002-0.5
			c-0.4769993-0.6972046-1.0546989-1.5156021-1.732399-2.4531021c-0.6792011-0.9356003-1.2397003-1.6660004-1.6855011-2.1913986
			c-0.6176996-0.7343979-1.1118994-1.2793045-1.4833994-1.6367035c-0.3720999-0.3574982-0.7089996-0.5586014-1.0122995-0.6016006
			c-0.1342001-0.0175934-0.2578001,0.1094055-0.3705997,0.3848038c-0.1127005,0.2753983-0.2275,0.7108994-0.3457003,1.3086014
			l-0.9315958-0.1328049l1.0497961-7.3359985L14.307704,103.125c-0.0313044,0.8945923,0.0257959,1.6562958,0.1664953,2.2851944
			c0.1421003,0.630806,0.4375048,1.2793045,0.8862,1.943306c0.6392002,0.9511948,1.1987,1.7402954,1.6792011,2.3652954
			c0.4790001,0.6268997,1.0922985,1.4297028,1.8412991,2.4121017c1.0375996-0.625,2.3062-1.3731003,3.8057003-2.2461014
			c1.4995003-0.8731003,2.9647999-1.7461014,4.3944988-2.6211014c0.3652-0.2206955,0.7212009-0.4804993,1.0688-0.7851944
			c0.3481998-0.3027039,0.6436005-0.6503067,0.8853016-1.0410004c0.1161995-0.1836014,0.2157993-0.3983994,0.299799-0.6425018
			c0.0839996-0.2442017,0.1431007-0.455101,0.1763-0.6368027L30.4424,104.2929993z"/>
		<path d="M36.8911972,87.351593l-3.5244942,8.8008041l-0.8735046-0.3516006
			c0.0664024-0.2070007,0.1611023-0.5097961,0.2881012-0.9121017c0.1264992-0.402298,0.1908989-0.6913986,0.1908989-0.8632965
			c-0.0018997-0.3202972-0.0751991-0.5663986-0.2168007-0.7402039c-0.1420975-0.1718979-0.3544998-0.3163986-0.6381989-0.4296951
			l-11.2362995-4.5c-0.2534008-0.1016006-0.4960995-0.142601-0.7285004-0.1230011
			c-0.2328987,0.0195007-0.4648991,0.1464005-0.6968002,0.3807983c-0.1464996,0.1483994-0.3290997,0.3828049-0.5468941,0.6992035
			c-0.2182045,0.3202972-0.3921051,0.5995941-0.5234051,0.8398972l-0.8731003-0.3496017l3.5235043-8.8007965l0.8730011,0.3495941
			c-0.0664063,0.2324066-0.1469059,0.523407-0.2402058,0.875c-0.0927944,0.3516083-0.1483994,0.6562042-0.1654987,0.9179993
			c-0.0195999,0.3281021,0.0537033,0.5820007,0.2192001,0.7617035c0.1665039,0.1777039,0.3799,0.3182983,0.6400986,0.4238052
			l11.2265987,4.4940948c0.2686005,0.1093979,0.517601,0.1503983,0.7476006,0.1269989
			c0.2299004-0.0253983,0.4619026-0.1561966,0.6938019-0.3906021c0.1288986-0.1288986,0.2978973-0.3613968,0.5048981-0.6972961
			C35.7437057,87.5273972,35.9048004,87.2402954,36.0165977,87L36.8911972,87.351593z"/>
		<path d="M39.6420975,52.6991997c-0.1107979,0.1953926-0.2612,0.4824982-0.4501991,0.8574982
			c-0.1889,0.375-0.2811928,0.7695007-0.2748985,1.1855011c0.0043983,0.3671989,0.1846008,0.7559013,0.5415001,1.1620979
			c0.3544998,0.4082031,0.9473,0.910202,1.7779007,1.5039024l9.9375,7.1348l-1.2525024,1.7461014l-16.9188995,0.9061966
			L39.5098,71.8692017c0.8090973,0.5780945,1.4609032,0.9667969,1.9594994,1.1600952
			c0.4966011,0.1952972,0.9301987,0.2402954,1.2988014,0.1387024c0.2694969-0.0723038,0.5971985-0.2617035,0.9848976-0.5664063
			c0.3867073-0.3046951,0.6810989-0.5565948,0.884201-0.7577972l0.7636986,0.5487976L41.1236,78.351593l-0.7637024-0.5487976
			c0.1621017-0.2656937,0.3232002-0.5898972,0.4819031-0.9726944c0.1611977-0.3809052,0.240799-0.7363052,0.2431984-1.0703049
			c-0.0088005-0.3866959-0.169899-0.7655945-0.4833984-1.1347961c-0.3148956-0.3691025-0.9218979-0.8768997-1.8223-1.5214996
			l-6.5805016-4.7226028c-0.3267002-0.2343979-0.6704006-0.4063034-1.0331993-0.5137024
			c-0.3623009-0.107399-0.7251015-0.1307983-1.0883999-0.0663986c-0.3843002,0.0684052-0.7466011,0.205101-1.085001,0.4082031
			c-0.3393002,0.205101-0.6810989,0.4687958-1.0223999,0.7929993l-0.7637005-0.5468979l3.7456055-5.2207031l14.8402958-0.794899
			l-5.2807007-3.7910004c-0.8378983-0.6016006-1.5019989-0.9961014-1.9916992-1.1796989
			c-0.4878006-0.1836014-0.9151001-0.2266006-1.2847023-0.1289024c-0.2855988,0.080101-0.6147003,0.2656021-0.9862976,0.5566025
			c-0.3726006,0.2910004-0.6597023,0.5331993-0.8614006,0.732399l-0.7456017-0.535099l4.2559013-5.9297028L39.6420975,52.6991997z"
			/>
		<path d="M69.2250977,38.6464996c-0.1786957,0.1718979-0.3320007,0.3320007-0.4618988,0.4766006
			c-0.1288986,0.146492-0.2753983,0.3456993-0.4393997,0.60149c-0.1894989,0.2871094-0.25,0.5567093-0.1807022,0.808609
			c0.0692978,0.2538986,0.1884995,0.4824982,0.3535004,0.6875l1.2442017,1.5468903
			c0.2509079,0.3145103,0.4560013,0.5625076,0.6151962,0.7481079c0.160202,0.1855011,0.3584061,0.4160004,0.5977097,0.6855011
			c-0.3233032,0.8788986-0.9629059,1.972702-1.9169998,3.285202c-0.9551086,1.3125-1.9434052,2.3807983-2.967804,3.204998
			c-0.9619064,0.7734985-1.9834061,1.3496017-3.0615044,1.7364006c-1.0781975,0.3827896-2.1718979,0.5370979-3.2812996,0.4628983
			c-1.1035004-0.0704002-2.1835976-0.3886986-3.2440987-0.9571075c-1.0567017-0.5682907-2.0331993-1.4081917-2.9267998-2.5194893
			c-0.8330002-1.0371017-1.4315987-2.1348-1.7969017-3.2910004c-0.3641968-1.1562996-0.4779968-2.3125114-0.3407974-3.472702
			c0.1308975-1.142601,0.514698-2.2518997,1.152401-3.3320007c0.6385994-1.0780983,1.5135994-2.0644989,2.625-2.9569969
			c0.7548027-0.607502,1.5282974-1.0782013,2.3182983-1.4122009c0.7901001-0.3339005,1.4785042-0.5625,2.0703011-0.6855011
			l0.1640968-0.9843979l0.8213005-0.6582031l4.0010033,4.7949028L63.7486,38.0761986
			C62.1010971,37,60.661705,36.3731003,59.4301987,36.1973c-1.2313995-0.1738014-2.3514938,0.1445007-3.3642006,0.9589996
			c-1.199295,0.964798-1.7032013,2.2343979-1.514698,3.8046989c0.1884995,1.5722008,1.0224991,3.2773018,2.5009995,5.1152
			c1.5682983,1.9531021,3.1152,3.2246017,4.6405983,3.8144989c1.5254021,0.5898018,2.872097,0.4140015,4.0430031-0.5273972
			c0.5478058-0.4393997,0.9686966-0.9141006,1.2636948-1.4219017c0.2938995-0.5078087,0.4726028-0.9648094,0.5332031-1.3730011
			l-2.1622009-2.6894989c-0.1795959-0.222599-0.3710022-0.3807983-0.5761032-0.4668007
			c-0.2031937-0.0858994-0.4726944-0.0878983-0.8066978-0.0038986c-0.2577972,0.0644989-0.5527,0.1816978-0.8788986,0.3535004
			c-0.3270988,0.1699982-0.5956993,0.3204002-0.8046989,0.4454002l-0.5879021-0.7325096l6.920002-5.5624924L69.2250977,38.6464996z"
			/>
		<path d="M108.9975967,13.0977001c-0.2207031,0.0839996-0.535202,0.2226-0.9403992,0.4179993
			c-0.4063034,0.1971998-0.7276001,0.4335003-0.9638977,0.7128c-0.2471008,0.2715006-0.3633041,0.6758003-0.3495941,1.2110004
			c0.0116882,0.5331993,0.1522903,1.3046999,0.4198914,2.3086004l1.6327972,6.125
			c0.4824066,1.8007984,0.2559052,3.4139996-0.6776886,4.8397999c-0.933609,1.4257984-2.4102097,2.4062996-4.4277115,2.9452991
			c-2.3535995,0.6288986-4.3144989,0.5859985-5.8847961-0.1308002c-1.573204-0.7168083-2.6112976-2.0195999-3.1172028-3.9141006
			l-2.2461014-8.419899c-0.0722961-0.2714996-0.1864929-0.4902-0.3436966-0.6562996
			c-0.1542969-0.1639996-0.4013977-0.2851009-0.7363968-0.3612995c-0.2285004-0.0469017-0.4960938-0.0625-0.8086014-0.0449009
			c-0.3104935,0.0156002-0.5604935,0.0370998-0.7538986,0.0643997l-0.2412033-0.9081993l8.6503983-2.3105097l0.2432098,0.9101095
			c-0.246109,0.0820999-0.4922104,0.1797009-0.7373047,0.2891006c-0.2461014,0.1112995-0.4893036,0.2441998-0.7315063,0.4004002
			c-0.2714996,0.1718998-0.4286957,0.3808994-0.4716949,0.625c-0.0429001,0.2440987-0.0302048,0.5,0.0429993,0.7694988
			l2.2177963,8.3145008c0.4355011,1.6327991,1.1152039,2.7245998,2.0371017,3.2733898
			c0.9218979,0.5508099,2.0702972,0.6406097,3.4492035,0.27351c1.3526001-0.3614006,2.3056946-1.0547009,2.8564987-2.080101
			c0.5516968-1.0254078,0.6141968-2.3360004,0.1884003-3.9296989l-1.4892044-5.5859013
			c-0.2646942-0.9882984-0.5302887-1.7128983-0.7978973-2.1679993c-0.2675018-0.4531002-0.5702972-0.7538996-0.9091034-0.8944998
			c-0.2481003-0.1171999-0.6416931-0.1778002-1.1806946-0.1816998c-0.5391006-0.0058002-0.9151001,0.0038996-1.125,0.0253906
			l-0.25-0.931591l7.1972961-1.9200001L108.9975967,13.0977001z"/>
		<path d="M141.2455902,11.8730993c-0.2245941,0.0214911-0.5448914,0.0624914-0.9598846,0.1211004
			c-0.4151154,0.0585995-0.7929993,0.2089996-1.1319122,0.4549999c-0.2977905,0.2129002-0.5126038,0.5820999-0.6445007,1.1055002
			c-0.128891,0.5254002-0.2021027,1.2987995-0.2167969,2.3203001l-0.1699066,12.2325001l-2.1483917-0.0313015L125.5551987,14.7149
			l-0.1094055,8.0116911c-0.0155945,0.9941082,0.0411072,1.7519073,0.1661072,2.2695084
			c0.125,0.5195999,0.3338928,0.9023991,0.6288986,1.1464901c0.2129059,0.1797104,0.5565948,0.3399105,1.0292969,0.4844093
			c0.4697037,0.1425915,0.8457031,0.2383003,1.1259003,0.2910004l-0.0126953,0.9395008l-7.3349075-0.0997009l0.0127029-0.9393997
			c0.3125-0.0214996,0.669899-0.0741997,1.0742035-0.1602001c0.4032974-0.0879002,0.7421951-0.2264996,1.017601-0.4160004
			c0.3143997-0.2285004,0.5311966-0.5762005,0.6532974-1.044899c0.1221008-0.4688015,0.1923981-1.2578011,0.2070007-2.3652
			l0.1122971-8.0977001c0.0048981-0.4022999-0.0507889-0.7832003-0.1688995-1.1426001
			c-0.1201019-0.3573999-0.3096008-0.6679001-0.569397-0.9296999c-0.2752991-0.2772999-0.5957031-0.4961004-0.9560013-0.6562004
			c-0.360405-0.1620998-0.7724915-0.2909994-1.2343979-0.3866997l0.0126953-0.9394999l6.4237976,0.0898905l9.13871,11.7168083
			l0.0907898-6.4960995c0.0137024-1.0351992-0.0428925-1.8027992-0.1717987-2.3085995
			c-0.128891-0.5059004-0.3378906-0.8828001-0.628891-1.1289005c-0.2286072-0.1894999-0.5684052-0.3535995-1.0196075-0.4922085
			c-0.4512024-0.1386909-0.8164063-0.2343912-1.0937042-0.2870913l0.0136108-0.9180002l7.2949982,0.1016006L141.2455902,11.8730993z
			"/>
		<path d="M159.6401978,32.3105888l-9.1777954-2.3769989l0.2363892-0.9100914
			c0.2129059,0.0370922,0.527298,0.0957012,0.9423981,0.1699009c0.4160004,0.0741901,0.7089081,0.0995998,0.8798065,0.0781002
			c0.3164063-0.0430012,0.5527954-0.1445007,0.7071075-0.3085995c0.1532898-0.1621017,0.2694855-0.3906002,0.3456879-0.6875
			l3.0332031-11.7187004c0.0693054-0.2637005,0.0780945-0.5078011,0.0301971-0.7364006
			c-0.0497894-0.2284994-0.2041016-0.4432993-0.4657898-0.6424999c-0.1660004-0.1269999-0.4217987-0.2774-0.7636108-0.4532089
			c-0.3437958-0.1756907-0.6436005-0.3124905-0.8994904-0.4139996l0.2353973-0.9101915L163.921402,15.7774l-0.2363129,0.9101
			c-0.2382965-0.0370998-0.5380859-0.0799999-0.8983917-0.1269093c-0.3603973-0.0468903-0.6699982-0.0644913-0.9297028-0.0488911
			c-0.3300934,0.0235004-0.5712891,0.1289997-0.726593,0.3164997c-0.1572113,0.1875-0.2695007,0.4160004-0.3418121,0.6893902
			l-3.031189,11.7070007c-0.0713043,0.2793083-0.0811005,0.5293083-0.0274048,0.755909
			c0.0537109,0.2245998,0.2109985,0.4375,0.4737091,0.6387005c0.1454926,0.1112995,0.3963928,0.25,0.7547913,0.4120998
			c0.3594055,0.1639996,0.6651001,0.2870998,0.9179993,0.3671989L159.6401978,32.3105888z"/>
		<path d="M193.2612915,30.0214996c-0.2442017-0.1035004-0.4902954-0.1797009-0.7363892-0.2264996
			c-0.246109-0.0489006-0.5175018-0.0665016-0.8154144-0.0508003c-0.3983917,0.0156002-0.7352905,0.0799999-1.0067902,0.1933002
			c-0.2734985,0.1152992-0.5849915,0.3046989-0.9356079,0.5723c-0.4785004,0.3729992-1.1649933,0.92379-2.0585938,1.6543007
			c-0.8945007,0.7284889-1.9120941,1.5565987-3.0565948,2.4862976c-1.0225067,0.8379021-2.1387024,1.7578011-3.3457031,2.7616997
			c-1.2070007,1.0039024-2.3632965,1.9668007-3.4667969,2.8887024l-2.1328125-1.1308022
			c0.2959137-2.9570999,0.5967102-5.9609985,0.8994141-9.0136986c0.3036957-3.0528011,0.5048981-5.1778011,0.6063995-6.3770008
			c0.0234985-0.4413986,0.0078888-0.7909985-0.0488129-1.0527077c-0.0565948-0.261692-0.1991882-0.5761909-0.4305878-0.9433918
			c-0.1700134-0.2616997-0.3330994-0.4687004-0.4893036-0.6191006c-0.155304-0.1504002-0.375-0.3261986-0.6562958-0.5312996
			l0.441391-0.8319988l8.1757965,4.3319988l-0.4276886,0.8106003c-0.8379059-0.3241997-1.4219055-0.5098095-1.7539063-0.5547009
			c-0.3350067-0.0468998-0.5419922,0.0098-0.625,0.1641006c-0.0410004,0.0799999-0.0722961,0.1679001-0.0957031,0.2714005
			c-0.0214996,0.099699-0.0468903,0.2383003-0.0762024,0.412199c-0.1054993,0.7518997-0.2343903,1.9980011-0.3895874,3.7420998
			c-0.155304,1.7442017-0.4190063,4.3925991-0.7881012,7.9395008c1.6660004-1.398407,3.0653992-2.5858994,4.1963043-3.5644989
			c1.1317902-0.9765015,2.1298828-1.8418007,2.9960938-2.5937004c0.4208984-0.3633003,0.7949066-0.7109013,1.1201019-1.0410004
			c0.3261871-0.3320999,0.5410004-0.5957012,0.6464996-0.7949009c0.1190948-0.2265987,0.0546875-0.5038986-0.1953125-0.8300991
			c-0.2509918-0.3281002-0.8066864-0.7656002-1.6669922-1.3125l0.4510956-0.8516006l6.1162109,3.2383003L193.2612915,30.0214996z"/>
		<path d="M211.8403931,49.8614006l-0.694397-0.6348114c0.2695923-0.6347923,0.4199982-1.3886909,0.4532013-2.261692
			c0.0332031-0.8710976-0.1152954-1.5370979-0.4434052-2.0019989c-0.1387024-0.2030983-0.3602905-0.4511986-0.6660004-0.7480011
			c-0.3056946-0.294899-0.5614929-0.5351982-0.7655945-0.7226982l-1.8106079-1.6562004l-4.4423981,4.8592987l1.2823029,1.1719017
			c0.3202972,0.2929993,0.648407,0.5214996,0.9804077,0.6856003c0.3339996,0.1639977,0.7089996,0.2363014,1.125,0.2167931
			c0.2577972-0.011795,0.6113892-0.1288948,1.0615997-0.343792c0.4500885-0.2168007,0.8114929-0.4316025,1.0838928-0.6484032
			l0.694397,0.6367035l-4.7968903,5.2460976l-0.6934052-0.6348c0.1914063-0.2812004,0.3887024-0.675808,0.5899048-1.1836014
			c0.2001953-0.5057983,0.3007965-0.8905983,0.3036957-1.1503983c0.0009918-0.3905983-0.092804-0.7440987-0.282196-1.0663986
			c-0.190506-0.3203011-0.4580078-0.6385994-0.8047028-0.9531021L202.7359009,47.5l-3.3281097,3.6406975
			c-0.347702,0.3788948-0.5957031,0.7070007-0.7422028,0.9804001c-0.1474915,0.271492-0.199295,0.5391006-0.1542969,0.7969017
			c0.0449066,0.2480011,0.1787109,0.5058975,0.4033051,0.777298c0.2236023,0.2695999,0.5576019,0.607502,1,1.0118027
			c0.2059937,0.1874924,0.4559937,0.4120979,0.7509918,0.669899c0.2938995,0.2578011,0.5644073,0.4725914,0.808609,0.6425934
			c0.2733917,0.1972046,0.5467987,0.363205,0.8153992,0.5019073c0.2695007,0.1386986,0.5088043,0.1973,0.717804,0.1835976
			c0.5467987-0.0312004,1.2684937-0.1815987,2.1660004-0.4511986c0.8954926-0.2695007,1.5350952-0.5018997,1.9169922-0.6953087
			l0.6396027,0.5839996l-3.8192902,3.6973076l-11.8096161-10.7988968l0.6328125-0.6933022
			c0.1786957,0.1406021,0.4268036,0.3241997,0.7460938,0.5508003c0.3184052,0.2265015,0.5585938,0.369091,0.7217102,0.4315987
			c0.3124847,0.1133003,0.5751953,0.1328011,0.7841949,0.0586014c0.2108917-0.0761986,0.4188995-0.2245979,0.6239929-0.4491997
			l8.1260071-8.892601c0.1962891-0.2108994,0.3241882-0.4179993,0.3846893-0.6171989
			c0.0625-0.1991997,0.0196075-0.4687004-0.128891-0.8105011c-0.089798-0.2128983-0.246109-0.4766083-0.4726105-0.7929993
			c-0.226593-0.3144989-0.4032898-0.5468979-0.5302887-0.6953011l0.6347961-0.6933975l11.1611023,10.2031975L211.8403931,49.8614006
			z"/>
		<path d="M220.699707,83.3827972l-3.5527191-5.5057983c0.8408051-1.8827972,1.4873047-3.4160004,1.9403992-4.597702
			c0.4551086-1.1855011,0.9454041-2.607399,1.4707031-4.2695007l-0.3457031-0.535202l-4.339798,2.8008041
			c-0.2401886,0.1563034-0.4149933,0.3320999-0.5253906,0.5313034c-0.1094055,0.1991959-0.1387024,0.464798-0.085907,0.7948914
			C215.2895966,72.7636948,215.3638,73,215.4819946,73.3105927c0.118103,0.308609,0.2303925,0.5664063,0.3379059,0.7754059
			l-0.7901001,0.5077972l-4.9580078-7.6777954l0.7910004-0.5117035c0.1475067,0.1856003,0.342804,0.4258041,0.588913,0.7246017
			c0.2450867,0.2968979,0.4384918,0.4961014,0.5800934,0.5996017c0.2743988,0.1875,0.5223999,0.2714996,0.7440948,0.2539978
			c0.2216949-0.017601,0.4609985-0.1093979,0.717804-0.2753983L223.6138,61.1758003
			c0.2431946-0.1543007,0.4199066-0.3242111,0.5341949-0.5039024c0.1132965-0.1796989,0.1387024-0.4491997,0.0771027-0.8105011
			c-0.0527039-0.2753983-0.1435089-0.5800972-0.2743988-0.9160995c-0.1289063-0.3339005-0.2362976-0.593708-0.3182983-0.7812004
			l0.7910004-0.5098l5.1971893,8.0547028c1.1622009,1.8007965,1.7637024,3.351593,1.8007965,4.6503983
			c0.0391083,1.2987976-0.5135956,2.3163986-1.656189,3.0547028c-1.0077972,0.6503983-2.0048981,0.8847961-2.9882965,0.7011948
			c-0.9854126-0.1817017-2.031311-0.7538986-3.1387024-1.7128983c-0.2958984,0.839798-0.6377106,1.8163986-1.0243988,2.9297028
			c-0.3867035,1.1112976-0.773407,2.259697-1.1611023,3.4432983c-0.1269989,0.3788986-0.2637024,0.869194-0.4092102,1.4746017
			c-0.1464996,0.6054993-0.1747894,1.0741959-0.0829926,1.4042969c0.0527039,0.1856003,0.1396027,0.4082031,0.2617035,0.669899
			c0.1190948,0.2598038,0.2089996,0.4433975,0.2675934,0.5489044L220.699707,83.3827972z M226.9467926,69.6366959
			c0.9570007-0.6191025,1.4844055-1.3377991,1.5801086-2.1581955c0.0956879-0.8203049-0.1758118-1.7246017-0.8145142-2.7148056
			l-0.5155945-0.7968979l-6.003891,3.8769989l0.4950867,0.7656021c0.6397095,0.9901962,1.3936005,1.589798,2.2647095,1.8008041
			C224.8237915,70.6211014,225.8217926,70.3613968,226.9467926,69.6366959z"/>
		<path d="M225.4760895,97.4042969c-0.3300934-0.9922028-0.5184937-1.9570007-0.5643921-2.8964996
			c-0.0449982-0.9393997,0-1.7636032,0.1367035-2.4686966l-1.0625-0.5233994l-0.3223114-0.9629059l5.8037109-2.0976944
			l0.3339996,0.9981003c-0.4795074,0.4061966-0.9668121,0.8807983-1.463913,1.4276962
			c-0.4979858,0.5468979-0.9139862,1.1268997-1.2479858,1.7362976c-0.3516083,0.6348038-0.5898132,1.2910004-0.7148132,1.9707031
			c-0.1269989,0.681694-0.0605927,1.4062958,0.1972046,2.1757965c0.3457031,1.0332031,0.8612976,1.7441025,1.5487976,2.1270065
			c0.6856079,0.384697,1.4112091,0.4491959,2.1749115,0.1952972c0.625885-0.2089996,1.0742035-0.6211014,1.344696-1.2324982
			c0.2714996-0.6093063,0.3983917-1.460907,0.3817902-2.5488052c-0.0087891-0.7070007-0.0145874-1.3593979-0.0184937-1.955101
			c-0.0059052-0.5956955,0.0057983-1.1600952,0.0302124-1.6932983c0.0693817-1.2362976,0.4189911-2.25,1.0497894-3.0487976
			c0.628891-0.8008041,1.4423981-1.3672028,2.4394989-1.7012024c0.6307983-0.2089996,1.2832031-0.2753983,1.9570007-0.1952972
			c0.6737976,0.0781021,1.3311005,0.3026962,1.9707031,0.6737976c0.601593,0.357399,1.1698914,0.8827972,1.7061005,1.5742035
			c0.536087,0.6913986,0.9579926,1.5,1.2655945,2.4218979c0.2998047,0.8983994,0.4579926,1.7811966,0.4745941,2.6464996
			c0.0176086,0.8651962-0.0253906,1.5663986-0.1259918,2.0996017l0.9169922,0.4667969l0.3339996,0.9980011l-5.4950867,1.955101
			l-0.3339996-0.9980011c0.5126953-0.427803,1.0253906-0.8964996,1.5370941-1.4122009
			c0.5127106-0.5135956,0.9160004-1.009697,1.2089996-1.4901962c0.3134918-0.5214996,0.5186005-1.0682983,0.6172028-1.6445007
			c0.0957031-0.5742035,0.0350952-1.1914063-0.183609-1.8457031c-0.2753906-0.8261948-0.7313995-1.419899-1.3661957-1.7910004
			c-0.6358032-0.369194-1.2940063-0.4394989-1.9716949-0.2109985c-0.6426086,0.2148972-1.0908051,0.6152954-1.3467102,1.2070999
			c-0.2567902,0.589798-0.378891,1.4179001-0.3661957,2.482399c-0.0018921,0.6288986,0,1.267601,0.0059052,1.919899
			c0.0077972,0.6504059-0.0019989,1.2344055-0.0234985,1.75c-0.0546112,1.2480011-0.3612976,2.2871017-0.9188995,3.1133041
			c-0.5565948,0.8281021-1.3897095,1.4237976-2.5,1.7968979c-0.6992035,0.2342987-1.4315948,0.294899-2.1943054,0.1855011
			c-0.7657013-0.1093979-1.4550934-0.3691025-2.0762024-0.7832031c-0.6826019-0.4491959-1.2870941-1.0331955-1.8134918-1.7460938
			C226.2758942,99.3632965,225.8334961,98.4726944,225.4760895,97.4042969z"/>
		<path d="M231.0717926,123.6641006l-0.9725952-9.4316025l0.9355011-0.0958023
			c0.0370941,0.2148972,0.0937958,0.5274048,0.1698914,0.9433975c0.0742035,0.4160004,0.1524048,0.6992035,0.2324982,0.8516006
			c0.1502991,0.2832031,0.3291016,0.4668045,0.5351105,0.5547028c0.2070007,0.0877991,0.4618988,0.1151962,0.7655945,0.0839005
			l12.0410004-1.2421036c0.2696075-0.0292969,0.5039978-0.1054993,0.7012024-0.2285995
			c0.1963043-0.1268997,0.3437958-0.3456955,0.4394989-0.6620941c0.059494-0.1992035,0.1132965-0.4922028,0.1582031-0.875
			c0.0448914-0.3828049,0.0682983-0.7129059,0.0731964-0.9843063l0.9355927-0.0976944l0.9736023,9.4296951l-0.9355011,0.0957031
			c-0.0488892-0.2363052-0.1132965-0.5313034-0.1933899-0.8848038c-0.0820007-0.3554001-0.1737976-0.6503983-0.2792969-0.8885956
			c-0.1367035-0.3008041-0.3193054-0.490303-0.5488129-0.5723038c-0.2314911-0.0820007-0.4863892-0.107399-0.7657013-0.0780945
			l-12.0292969,1.2401962c-0.2861023,0.0312042-0.5252991,0.1093979-0.718689,0.2382965
			c-0.1934052,0.1289063-0.335907,0.3496017-0.433609,0.6660004c-0.0547028,0.1758041-0.0957031,0.4589996-0.1230011,0.8516006
			c-0.0283966,0.3945007-0.0372009,0.7246017-0.0253906,0.988205L231.0717926,123.6641006z"/>
		<path d="M241.5434875,151.2519989l0.1103058-0.933609c0.7519989-0.1620941,1.5722961-0.4648895,2.4609985-0.9101868
			c0.8905945-0.4472046,1.3945007-0.8945007,1.5137024-1.3476105c0.0605011-0.25,0.1259003-0.5605927,0.1932983-0.9297028
			c0.0684052-0.3710938,0.1192017-0.691391,0.1504059-0.9608917l0.066391-0.5606079l-13.2831879-1.5761871
			c-0.2871094-0.0332031-0.5449066-0.0097046-0.776413,0.0683899c-0.2313995,0.0762024-0.4286957,0.2617035-0.5926971,0.5487976
			c-0.092804,0.1758118-0.2001953,0.4531097-0.3222961,0.8321075c-0.1210938,0.378891-0.214798,0.7030945-0.277298,0.9687042
			l-0.933609-0.1094055l1.125-9.4882965l0.933609,0.1113892c-0.0039063,0.234314-0.0097961,0.5644073-0.0147095,0.9883118
			c-0.0067902,0.4256897,0.0147095,0.718689,0.0596008,0.8768921c0.089798,0.3281097,0.2373047,0.5566101,0.4394073,0.6856079
			c0.2032013,0.128891,0.4512024,0.2108917,0.7451935,0.2460022l13.4033051,1.5898895l0.0664063-0.5585938
			c0.031189-0.2714996,0.0585938-0.5937958,0.0780945-0.9707031c0.0204926-0.375,0.0292969-0.6914063,0.0283051-0.9492035
			c-0.0088043-0.4687958-0.3935089-1.0214996-1.1552124-1.664093c-0.7597961-0.6426086-1.4863892-1.1289063-2.1796875-1.4589996
			l0.1112976-0.9355011l4.8563995,0.5762024l-1.9502106,16.4375L241.5434875,151.2519989z"/>
		<path d="M235.9838867,180.8105927c0.0742035-0.2812958,0.1192017-0.5448914,0.1387024-0.7948914
			c0.0166016-0.25,0.0048981-0.5-0.0370941-0.7442017c-0.0585938-0.3926086-0.1777039-0.7656097-0.3632965-1.1230011
			c-0.1846008-0.3574982-0.4042969-0.722702-0.6572113-1.0917969c-0.5263977-0.7578125-1.1044922-1.5644989-1.7353973-2.4179993
			c-0.6298828-0.8535004-1.3271027-1.7871094-2.0907898-2.7969055c-0.4795074-0.6542969-0.8721008-1.0957031-1.176712-1.3182983
			c-0.3056946-0.2246094-0.8769989-0.496109-1.7167969-0.8184052l-2.2579041-0.8652039
			c-0.2694855-0.1035004-0.5252991-0.1445923-0.7655945-0.1191864c-0.2422028,0.0234985-0.4804993,0.1542969-0.7167969,0.3925934
			c-0.1015015,0.1054993-0.2743988,0.3495941-0.5195007,0.7304993c-0.2451019,0.3827972-0.4120941,0.6660004-0.5019989,0.8574066
			l-0.8789063-0.3379059l3.4199982-8.9219055l0.8789063,0.3359985c-0.0664063,0.2148132-0.1524048,0.5293121-0.2579041,0.9433136
			c-0.1073914,0.4101868-0.1600952,0.7070923-0.1620941,0.8886871c0.0137024,0.3242035,0.1006012,0.5742035,0.2597961,0.7519989
			c0.160202,0.1777039,0.3827972,0.3222046,0.6670074,0.4316101l2.8096008,1.0762024
			c0.2460938,0.093689,0.464798,0.1737976,0.6542969,0.2382965c0.191391,0.0643921,0.3573914,0.0975952,0.5028992,0.1015015
			c0.1620941,0.0019989,0.3778992-0.0176086,0.6474915-0.0605011c0.2695007-0.0429993,0.6191101-0.0957031,1.0488129-0.1621094
			c1.2323914-0.1894989,2.4042969-0.378891,3.5175934-0.5683899c1.1123047-0.1914063,2.1582031-0.3789063,3.1385956-0.558609
			c0.5088043-0.097702,0.9385071-0.226593,1.2891083-0.3866882c0.3495941-0.1621094,0.6542969-0.347702,0.9150085-0.5567017
			c0.1904907-0.1601105,0.3691864-0.3710022,0.5400848-0.6347046c0.1699066-0.2655945,0.3065948-0.5097961,0.4100952-0.7362976
			l0.8789063,0.3358917l-3.5,9.1328125l-0.8789063-0.335907c0.3008118-0.8536072,0.4610138-1.4452972,0.4805145-1.7734985
			c0.0185852-0.3301086-0.0547028-0.5254059-0.218811-0.589798c-0.0829926-0.0312958-0.2684937-0.0410004-0.5576019-0.0254059
			c-0.2881012,0.0137024-0.7451019,0.0605011-1.3680878,0.1367035c-0.5860138,0.0702972-1.4004059,0.1855927-2.4434052,0.347702
			c-1.0438995,0.1620941-2.2714996,0.3690948-3.6835938,0.6172028c1.7128906,2.2870941,2.9159851,3.8670959,3.6112976,4.7420959
			c0.6923981,0.875,1.1407013,1.351593,1.3417969,1.4277954c0.2548981,0.0976105,0.5097961,0.0176086,0.7637024-0.2422028
			c0.253891-0.2577972,0.532196-0.7285004,0.8358917-1.4081879l0.8789978,0.3339996l-2.261795,5.902298L235.9838867,180.8105927z"/>
	</g>
	<path d="M217.5971985,129.5077972c0,48.6387024-39.4375,88.0899048-88.0868988,88.0899048
		c-48.6533051,0-88.0967026-39.4512024-88.0967026-88.0899048c0-48.6562042,39.4433975-88.0936966,88.0967026-88.0936966
		C178.1596985,41.4141006,217.5971985,80.851593,217.5971985,129.5077972z M116.5767059,55.6718979
		c-3.8437119,0-6.9589996,3.1152-6.9589996,6.9589996v9.0116959c-7.2617111,1.6621017-14.6396103,4.3711014-22.0097122,8.0879059
		c-8.3564987,4.2108994-16.5986938,9.714798-23.8349953,15.914093c-2.8222961,2.4160004-3.1504021,6.6640015-0.7334023,9.4843063
		c2.4169998,2.8222961,6.6650009,3.1503983,9.4852982,0.7343979c11.3243027-9.7031021,24.472702-16.8651962,37.0928116-20.3417969
		v15.4550934c-8.7627106,2.8574066-17.3271103,7.7031021-25.5283051,14.4726028
		c-9.2305069,7.6192017-17.8242035,17.5078964-25.5430031,29.3906937c-0.7363014,1.1328125-1.0858994,2.4023132-1.0858994,3.6582031
		c0,2.2031097,1.0780983,4.3594055,3.0634995,5.648407c3.1152,2.0234985,7.280201,1.1387024,9.3047066-1.9765015
		c6.9715958-10.7344055,14.6512909-19.597702,22.8250961-26.3458023
		c8.3320999-6.8768997,17.5546951-11.589798,25.6319046-13.3046036c3.5917892-0.7656937,5.25-4.0898972,5.25-6.3808975
		c0-0.357399,0-1.625,0-3.5195007c0-10.4238968,0-39.7696037,0-39.7696037v-0.2186928
		C123.5357056,58.7870979,120.4204941,55.6718979,116.5767059,55.6718979z M135.4750977,62.6308975v0.2186928
		c0,0,0,29.3457069,0,39.7696037c0,1.8945007,0,3.1621017,0,3.5195007c0,2.2910004,1.6573029,5.6152039,5.25,6.3808975
		c8.0782013,1.7148056,17.2998047,6.4277039,25.631897,13.3046036c8.1737976,6.7481003,15.8535004,15.6113968,22.8260956,26.3458023
		c2.0225067,3.1152039,6.1894989,4,9.3047028,1.9765015c1.9844055-1.2890015,3.0644989-3.4452972,3.0644989-5.648407
		c0-1.2558899-0.351593-2.5253906-1.0878906-3.6582031c-7.718811-11.8827972-16.3125-21.771492-25.5429993-29.3906937
		c-8.2002106-6.7695007-16.7636108-11.6151962-25.5273132-14.4726028V85.5214996
		c12.6191101,3.4766006,25.7676086,10.6386948,37.0918121,20.3417969c2.8221893,2.4160004,7.0682983,2.0878983,9.4852905-0.7343979
		c2.4170074-2.8203049,2.0888977-7.068306-0.7333984-9.4843063c-7.2362976-6.199295-15.4785004-11.7031937-23.8358917-15.914093
		c-7.3691101-3.7168045-14.7481079-6.4258041-22.0078125-8.0879059v-9.0116959c0-3.8437996-3.1161957-6.9589996-6.9599915-6.9589996
		C138.5903931,55.6718979,135.4750977,58.7870979,135.4750977,62.6308975z M184.2525024,174.2870941
		c-2.9229126-6.8143921-6.2432098-13.0995941-9.8721008-18.6795959
		c-3.8135071-5.8652954-7.9785004-10.9687958-12.3789063-15.1719055
		c-4.7362976-4.5175934-9.7832031-8.0273895-15.0028992-10.4277954c-3.4375-1.5839081-6.9609985-2.6893997-10.5341949-3.3143997
		v-4.0898972c0-3.8418045-3.1152039-6.9570007-6.9580078-6.9570007c-3.8437958,0-6.9589996,3.1151962-6.9589996,6.9570007v4.0898972
		c-3.5731964,0.625-7.0966873,1.7304916-10.5351944,3.3143997c-5.2197037,2.4004059-10.2666016,5.910202-15.0009003,10.4277954
		c-4.4024048,4.2031097-8.5663986,9.3066101-12.3808975,15.1719055c-3.6269073,5.5800018-6.9492035,11.8652039-9.8711014,18.6795959
		c-1.4648056,3.4120941,0.1161957,7.3672028,3.5292969,8.8321075c3.4160004,1.4628906,7.3692017-0.1153107,8.8349991-3.531311
		c5.2802048-12.3125,11.9111099-22.4843903,19.1748047-29.4178925c5.232399-4.9942017,10.6737976-8.2442017,16.2489929-9.7167969
		v10.9452972c0,3.7617035-2.7724991,5.2422028-4.044899,6.0195007c-0.4131012,0.2519989-1.2958984,0.7655945-1.7109985,1.035202
		c-2.5830002,1.6737976-5.5458984,4.2596893-8.3231964,7.8182983c-5.0078049,6.4179993-8.9023056,15.1679993-10.9648056,24.6387024
		c-0.7910995,3.628891,1.5117035,7.2128906,5.1406021,8.003891c3.6307983,0.7910004,7.214798-1.5097961,8.0048981-5.1405945
		c1.6416016-7.5391083,4.6338043-14.3653107,8.426712-19.2246094c1.9374924-2.4824982,5.868187-6.6464996,10.430687-6.6464996
		c4.5605011,0,8.4922028,4.1640015,10.4307098,6.6464996c3.7910004,4.8592987,6.7831879,11.6855011,8.4256897,19.2246094
		c0.7891083,3.6307983,4.3731079,5.9315948,8.0039063,5.1405945c3.6298981-0.7910004,5.9317017-4.375,5.1407013-8.003891
		c-2.0625-9.4707031-5.9561005-18.2207031-10.9649048-24.6387024c-2.7783051-3.558609-5.7402039-6.1445007-8.3222046-7.8182983
		c-0.4160919-0.2696075-1.2968903-0.7832031-1.7128906-1.035202c-1.2714996-0.777298-4.0429993-2.2577972-4.0429993-6.0195007
		v-10.9452972c5.5741882,1.4725952,11.0155945,4.7225952,16.2480011,9.7167969
		c7.2636871,6.9335022,13.8945923,17.1053925,19.1757965,29.4178925c1.4638977,3.4160004,5.4179993,4.9942017,8.8329926,3.531311
		C184.1352997,181.6542969,185.7162933,177.6991882,184.2525024,174.2870941z"/>
</g>
</svg>
